<svg width="64" height="64" viewBox="0 0 64 64" fill="none" xmlns="http://www.w3.org/2000/svg">
<g clip-path="url(#clip0_359_2)">
<rect y="10" width="64" height="44" rx="20" fill="white"/>
<path fill-rule="evenodd" clip-rule="evenodd" d="M12 29.3493V34.6285C12 40.766 15.9807 44 21.7828 44C28.0229 44 31.093 40.7328 31.093 35.6179V34.826H26.6396V35.6179C26.6396 38.2261 25.3254 40.048 21.7828 40.048C21.0759 40.1239 20.3612 40.0405 19.6896 39.804C19.018 39.5674 18.406 39.1834 17.8972 38.6794C17.3883 38.1753 16.9951 37.5636 16.7456 36.8877C16.496 36.2118 16.3963 35.4883 16.4534 34.7687V29.2311C16.4296 28.52 16.5523 27.8117 16.8135 27.1514C17.0747 26.4911 17.4686 25.8935 17.9702 25.3967C18.4718 24.8998 19.07 24.5146 19.7264 24.2659C20.3829 24.0171 21.0833 23.9102 21.7828 23.952C25.0219 23.952 26.6396 25.7351 26.6396 28.3821V29.1739H31.093V28.3821C31.093 23.234 27.7539 20 21.7828 20C15.8117 20 12 23.6068 12 29.3493ZM31.8964 20.4393L38.44 43.5385H45.4563L52 20.4393H47.414L42.1863 39.6769H41.7137L36.4842 20.4393H31.8964Z" fill="#111112"/>
</g>
<defs>
<clipPath id="clip0_359_2">
<rect width="64" height="64" fill="white"/>
</clipPath>
</defs>
</svg>
