<svg width="550" height="550" viewBox="0 0 550 550" fill="none" xmlns="http://www.w3.org/2000/svg">
<g clip-path="url(#clip0_369_54)">
<rect width="550" height="550" fill="#EDEFF3"/>
<path d="M64.7171 511.481C50.9764 522.858 48.3309 535.579 48.7257 540.517C33.5635 588.872 47.5412 609.652 56.4252 613.998C99.069 638.294 204.494 662.59 315.842 657.257C427.189 651.924 463.318 613.405 459.764 589.702C456.921 570.739 446.34 534.394 441.404 518.592C438.561 504.844 424.82 496.666 418.305 494.296C405.275 490.74 373.292 477.111 359.078 471.185C347.706 466.444 337.361 459.728 333.61 456.963L315.842 434.444L184.949 388.815C176.894 386.445 172.116 389.803 170.734 391.778C163.627 403.156 153.558 439.58 149.412 456.37L64.7171 511.481Z" fill="#9FB37F"/>
<path d="M266 483.091C277.069 486.569 302.69 491.179 311.912 478.152C312.205 477.1 312.451 476.776 312.567 477.15C312.359 477.495 312.14 477.829 311.912 478.152C310.184 484.339 306.802 515.694 318.537 578.151C325.701 601.123 341.224 648.732 346 655.387C341.025 656.575 323.433 658.714 292.866 657.763C294.06 645.287 295.015 614.511 289.284 591.221C283.114 559.931 266.955 484.992 266 483.091Z" fill="white"/>
<path d="M193.448 326.787C198.648 342.891 185.372 394.282 178.085 417.964C179.503 423.174 201.918 440.659 212.948 448.751C226.657 461.066 253.326 476.775 264.947 483.09C286.692 489.721 305.128 483.485 311.628 479.538C312.101 469.118 316.946 431.779 319.31 414.411C350.982 416.78 367.961 403.162 372.491 396.058C383.364 385.164 384.112 366.652 383.127 358.758C382.655 345.022 386.87 319.485 389.036 308.433C393.764 296.592 391.794 285.738 390.218 281.791C386.909 267.581 389.233 247.057 390.809 238.57C391.755 230.992 390.415 216.072 389.627 209.56C387.264 187.298 378.4 171.076 374.264 165.747C367.173 160.419 356.537 154.498 349.446 151.538L287.401 132L217.675 147.986L207.63 178.773L168.039 240.939C147.712 253.253 149.721 280.014 153.267 291.856C158.467 313.17 176.312 327.182 184.585 331.523C189.785 333.418 192.66 329.155 193.448 326.787Z" fill="#F1D5CA"/>
<path d="M148 457C131.598 468.184 67.3683 508.419 63.645 511.745C53.1006 521.163 50.1716 527.638 49 540" stroke="black" stroke-width="3" stroke-linecap="round"/>
<path d="M310 491C313.529 480.853 314.824 433.578 320 414" stroke="black" stroke-width="3" stroke-linecap="round"/>
<path d="M309.304 491C307.495 515.175 313.643 574.019 331 616" stroke="black" stroke-width="3" stroke-linecap="round"/>
<path d="M332 455C360.87 476.785 417.432 493.271 422.146 495.626C426.859 497.981 438.054 505.047 441 518" stroke="black" stroke-width="3" stroke-linecap="round"/>
<path d="M150 457C189.232 497.763 214.497 530.018 232.387 537.141C228.66 513.396 225.207 491.906 238.86 481.933C245.922 477.777 263.882 477.777 268.284 490.837C271.619 500.731 292.529 601.729 293 625" stroke="black" stroke-width="3" stroke-linecap="round" stroke-linejoin="round"/>
<path d="M150 457C151.152 448.684 156.564 421.612 169 395" stroke="black" stroke-width="3" stroke-linecap="round"/>
<path d="M183.926 388.395C178.815 387.803 174.018 387.076 169.772 392.764C165.644 400.244 167.296 409.707 190.413 432.457C213.019 449.045 253.395 478.208 260 482" stroke="black" stroke-width="3" stroke-linecap="round"/>
<path d="M178 417C184.461 395.058 196.829 331.605 191.845 315" stroke="black" stroke-width="3" stroke-linecap="round"/>
<path d="M211.497 253.469L196.035 257C191.753 250.879 185.132 245.032 182.356 242.874C176.171 237.224 163.921 242.874 158.568 246.406C159.52 234.634 156.982 218.35 155 211.68L218.633 154C217.206 158.709 225.968 175.973 230.527 184.017C234.809 194.847 228.743 203.048 225.175 205.794C216.611 211.445 213.281 216.781 212.686 218.743C209.356 223.451 210.506 243.855 211.497 253.469Z" fill="black"/>
<path d="M241 157.072C224.502 155.171 226.847 174.899 230.082 185L204 161.232L213.098 144H229.475L241 157.072Z" fill="black"/>
<path d="M143.81 144.622C140.262 176.136 149.131 198.333 155.635 213C176.92 197.541 222.732 163.548 218.68 154.378C216.315 149.027 218.68 146.054 222.227 148.432C237.599 154.973 271.301 160.919 284.308 156.162C315.999 161.87 338.724 146.406 347.199 142.243C354.294 130.352 338.724 111.523 330.053 103.595C306.403 85.7573 247.869 83.3789 212.986 88.1357C172.781 92.8924 147.357 113.109 143.81 144.622Z" fill="black"/>
<path d="M164 90C167.75 92.5714 168.688 100.357 168.688 103.929L179 105C177.5 96.4286 168.375 91.4286 164 90Z" fill="black"/>
<path d="M238.399 321.233C216.234 292.293 211.872 267.267 210.693 256L197.135 257.779C193.834 275.807 198.511 287.035 201.262 290.395C209.279 297.986 211.676 307.395 211.872 311.151C211.401 323.012 214.82 339.419 216.588 346.139C221.304 373.656 249.992 393.581 263.746 400.105C288.74 413.388 324.07 414.732 338.61 413.744C367.848 411.372 379.481 388.639 381.642 377.57C383.528 373.3 384 351.674 384 341.395C367.495 341.395 365.726 330.608 355.705 330.128C330.947 328.942 317.978 323.012 301.473 346.139C290.273 363.93 244.883 330.326 238.399 321.233Z" fill="#DCC4BA"/>
<path d="M145 101.009C157 101.009 166 105.67 169 108L175 103.339C163.8 94.9498 150.333 98.2901 145 101.009Z" fill="black"/>
<path d="M286.523 170.135C258.849 169.424 230.561 154.246 219.877 146.745C233.581 141.319 263.052 150.893 274.531 155.86C283.713 159.834 286.352 167.032 286.523 170.135Z" fill="black"/>
<path d="M252.402 171.99C241.193 169.351 230.243 158.716 225.453 154.316C228.481 146.613 249.497 127.866 249.497 143.209C249.496 150.231 255.942 166.788 252.402 171.99Z" fill="black"/>
<path d="M316.219 176.521C286.172 170.349 271.994 154.11 264.287 146.143C276.655 143.937 299.896 150.123 308.685 156.13C315.717 160.936 316.588 173.931 316.219 176.521Z" fill="black"/>
<path d="M356.675 170.35C310.463 174.497 296.252 156.063 287.388 149.425C299.029 145.04 332.878 151.057 342.456 155.538C350.118 159.123 356.587 167.686 356.675 170.35Z" fill="black"/>
<path d="M387.52 157.653C352.195 168.932 309.57 161.867 292.673 156.924C307.56 143.906 349.155 143.238 365.913 144.572C379.32 145.638 385.903 153.737 387.52 157.653Z" fill="black"/>
<path d="M311.067 77.6784C303.412 82.7787 265.868 88.3256 248.053 90.4616C262.15 94.4313 292.576 101.095 301.507 95.9942C310.438 90.893 311.602 81.6582 311.067 77.6784Z" fill="black"/>
<path d="M348.125 75.8488C340.449 81.752 301.413 90.2581 282.855 93.7733C297.944 96.9363 330.376 101.763 339.392 95.7681C348.408 89.7728 348.97 79.9905 348.125 75.8488Z" fill="black"/>
<path d="M383.913 97.8318C369.472 110.024 294.117 130.077 258.244 138.58C287.945 143.407 351.61 149.937 368.656 137.446C385.703 124.955 385.931 105.832 383.913 97.8318Z" fill="black"/>
<path d="M378.74 80.7206C374.08 98.8754 371.806 114.711 361.877 122.498C336.139 125.638 298.8 110.669 296.736 99.6588C312.36 100.489 360.592 86.7155 378.74 80.7206Z" fill="black"/>
<path d="M393.556 122.654C387.923 126.339 377.07 127.12 372.348 127.049L337.325 144.006L361.4 150.161C385.179 150.949 392.746 132.151 393.556 122.654Z" fill="black"/>
<path d="M346.871 156.021C366.279 155.546 373.867 163.144 377.049 168.491C386.122 183.731 388.41 202.693 391.25 225.494C392.581 236.183 388.492 237.884 385.924 242.714C381.191 251.621 381.191 262.309 387.108 275.373C389.672 279.925 394.8 290.809 390.066 305.062C384.612 321.486 382.374 350.784 383.557 367.41C383.163 384.63 369.948 410.16 336.812 413.725C322.216 414.913 288.29 412.656 259.888 398.88C247.462 392.854 238.941 387.361 223.793 365.035C218.665 355.335 209 330.83 211.367 310.404" stroke="black" stroke-width="3" stroke-linecap="round"/>
<path d="M196 257.831C192.538 248.455 178.087 232.904 159.281 248.916C150.534 258.112 146.16 280.83 159.281 305.713C161.285 309.86 167.809 320.318 177.868 328.972C181.513 331.677 189.677 335.031 193.176 326.809" stroke="black" stroke-width="3" stroke-linecap="round"/>
<path d="M190.482 304.832C189.086 305.222 185.454 305.183 182.102 301.902C180.706 300.144 178.75 295.339 182.102 290.182C183.299 288.62 186.652 286.197 190.482 289.01C192.278 276.119 189.285 263.227 183.299 256.196C181.304 253.852 175.637 249.984 168.933 253.266C162.947 256.196 155.166 267.329 161.152 284.323" stroke="black" stroke-width="3" stroke-linecap="round" stroke-linejoin="round"/>
<path d="M295.205 219.183C286.187 219.394 274.436 224.527 269.688 227.067C268.842 222.477 274.659 215.019 278.637 212.757C290.157 208.203 303.088 208.842 308.113 209.73C321.631 212.262 323.354 216.911 322.526 218.918C322.261 221.528 319.369 221.546 317.957 221.228C310.19 219.267 299.553 219.048 295.205 219.183Z" fill="black"/>
<path d="M376.627 222.2C385.647 222.026 382.047 221.848 386.893 224.241C386.784 217.609 387.163 215.561 384.011 214.013C372.316 209.852 368.334 211.961 363.349 213.087C349.942 216.259 348.408 221.089 349.317 223.107C349.687 225.765 352.577 225.658 353.975 225.273C361.657 222.932 372.277 222.249 376.627 222.2Z" fill="black"/>
<path d="M261.515 233.008L193 253.028L194.192 260.682L252.578 247.14C256.153 246.551 258.416 247.728 258.536 251.261C259.013 265.313 263.302 275.402 267.473 278.935C271.643 282.468 289.914 282.075 297.262 281.879C315.135 280.702 325.859 277.758 327.051 275.402C331.817 269.514 333.009 253.42 333.604 245.373C335.034 242.076 338.966 242.037 340.754 242.429C345.043 242.429 346.513 244.392 346.712 245.373C349.095 270.81 356.443 278.346 359.819 278.935C377.931 283.175 393.183 279.917 398.545 277.758C404.741 276.344 407.879 258.327 408.673 249.495C408.779 248.317 409.486 246.782 411.056 244.196C412.843 241.251 411.652 234.775 411.056 233.597L403.311 231.831C389.012 228.298 362.798 231.438 355.053 233.008C348.38 235.363 342.74 235.56 340.754 235.363C336.941 235.363 332.413 233.793 330.626 233.008C325.859 231.595 307.986 230.457 299.645 230.064C286.299 229.593 268.664 231.831 261.515 233.008Z" fill="black"/>
<path d="M269.645 237.178C265 239.496 265.581 244.714 265 250.51C265.464 268.596 272.549 275.05 276.032 276.016C295.775 280.653 313.775 276.016 321.324 273.697C327.899 271.677 329.259 255.341 330.033 249.351C331.232 240.076 331.776 238.337 328.872 237.758C299.839 231.381 277.775 234.473 269.645 237.178Z" fill="#AEE5FF"/>
<path d="M355.41 238.374C351.479 240.337 352.492 244.15 352 249.058C352.393 264.371 358.82 273.239 362.799 274.926C372.022 278.836 390.08 276.612 396.332 273.239C401.706 270.339 403.634 254.692 404.289 249.62C405.426 240.822 405.36 238.864 402.903 238.373C378.53 232.091 362.29 236.083 355.41 238.374Z" fill="#AEE5FF"/>
<path d="M296.783 254.029C295.863 256.393 292.183 256.196 290.458 255.802C288.619 261.002 292.758 265.375 295.058 265.848C299.658 266.794 302.341 263.09 303.107 261.121C305.867 254.975 301.574 249.498 299.083 247.529C298.508 246.938 295.633 246.347 296.783 248.71C297.703 250.602 297.166 253.044 296.783 254.029Z" fill="black"/>
<path d="M370.267 253.029C369.282 255.393 365.339 255.196 363.491 254.802C361.52 260.002 365.955 264.375 368.419 264.848C373.347 265.794 376.222 262.09 377.044 260.121C380 253.975 375.401 248.498 372.731 246.529C372.115 245.938 369.035 245.347 370.267 247.71C371.253 249.602 370.678 252.044 370.267 253.029Z" fill="black"/>
<path d="M285.737 72.0073C279.653 76.8071 248.516 83.9749 233.708 86.9589C245.804 89.3579 271.783 92.9345 278.938 88.0489C286.092 83.1632 286.451 75.3188 285.737 72.0073Z" fill="black"/>
<path d="M348.439 253C351.137 263.444 357.111 287.288 360.002 296.155C362.314 303.249 363.355 312.945 362.892 316.255C362.892 319.014 360.117 324.177 349.017 322.758C349.017 322.758 329.938 319.802 323 315.073" stroke="black" stroke-width="3" stroke-linecap="round"/>
<path d="M302 337C305.617 318.564 312.007 308.86 315.867 304.291C318.881 300.722 323.704 297.749 329.13 299.533C329.13 299.533 334.556 300.723 333.953 307.413" stroke="black" stroke-width="3" stroke-linecap="round"/>
<path d="M349.545 381.674C351.413 379.529 350.236 372.515 349.545 370.603L343.707 367.641C341.963 368.741 338.309 365.88 336.258 368.233C334.754 369.96 332.976 375.935 336.258 381.904L340.086 386.007L343.707 388.374C344.233 386.007 346.777 380.681 346.603 383.045C346.43 385.409 348.358 382.735 349.545 381.674Z" fill="black"/>
<path d="M352.014 343C352.014 347.571 353.806 351.571 355 354.429C349.625 358.429 328.125 360.714 312 352.143" stroke="black" stroke-width="3" stroke-linecap="round"/>
<path d="M330.442 560C322.342 531.496 316.556 505.744 322.342 480.385C324.271 475.863 325.814 468.59 334.493 468C342.015 468 352.314 470.595 349.536 495.128C349.151 497.88 348.032 503.385 346.643 505.744" stroke="black" stroke-width="3" stroke-linecap="round"/>
<path d="M316 434C321.362 442.026 335.421 462.543 344 471" stroke="black" stroke-width="3" stroke-linecap="round"/>
<path d="M255 478.287C280.531 489.725 309.031 488.009 312 476" stroke="black" stroke-width="3" stroke-linecap="round"/>
<path d="M346 506C340.649 501.8 328.757 485.12 324 476" stroke="black" stroke-width="3" stroke-linecap="round"/>
<ellipse cx="277.877" cy="243.816" rx="5.92466" ry="3.5548" transform="rotate(-30.8201 277.877 243.816)" fill="white"/>
<ellipse cx="362.992" cy="245.164" rx="5.92466" ry="3.5548" transform="rotate(-30.8201 362.992 245.164)" fill="white"/>
</g>
<defs>
<clipPath id="clip0_369_54">
<rect width="550" height="550" fill="white"/>
</clipPath>
</defs>
</svg>
