<svg width="550" height="550" viewBox="0 0 550 550" fill="none" xmlns="http://www.w3.org/2000/svg">
<g clip-path="url(#clip0_369_54)">
<rect width="550" height="550" fill="#EDEFF3"/>
<path d="M41.9997 551.829C26.8783 564.344 23.967 578.337 24.4015 583.769C7.71585 636.959 23.0979 659.818 32.8747 664.598C79.8032 691.323 195.821 718.049 318.357 712.182C440.893 706.316 480.651 663.946 476.741 637.872C473.612 617.013 461.967 577.033 456.535 559.651C453.407 544.528 438.285 535.533 431.116 532.925C416.776 529.014 381.58 514.022 365.937 507.503C353.423 502.289 342.038 494.901 337.91 491.859L318.357 467.089L174.312 416.897C165.448 414.289 160.19 417.983 158.669 420.156C150.848 432.671 139.768 472.738 135.205 491.207L41.9997 551.829Z" fill="#9FB37F"/>
<path d="M264 520.697C276.037 524.521 303.901 529.589 313.929 515.267C314.248 514.11 314.516 513.753 314.642 514.165C314.415 514.544 314.178 514.911 313.929 515.267C312.05 522.069 308.372 556.542 321.134 625.21C328.925 650.467 345.806 702.811 351 710.127C345.59 711.433 326.458 713.785 293.216 712.74C294.515 699.022 295.554 665.186 289.321 639.58C282.612 605.178 265.039 522.787 264 520.697Z" fill="white"/>
<path d="M183.851 348.146C189.591 365.933 174.938 422.695 166.894 448.853C168.46 454.607 193.2 473.92 205.374 482.858C220.505 496.459 249.941 513.811 262.767 520.786C286.768 528.11 307.117 521.222 314.291 516.862C314.813 505.353 320.161 464.111 322.77 444.929C357.727 447.545 376.467 432.504 381.467 424.657C393.468 412.624 394.294 392.178 393.207 383.459C392.685 368.287 397.338 340.081 399.729 327.874C404.947 314.795 402.773 302.806 401.033 298.447C397.381 282.752 399.946 260.082 401.686 250.709C402.729 242.339 401.251 225.859 400.381 218.666C397.772 194.078 387.989 176.16 383.424 170.275C375.598 164.389 363.858 157.85 356.032 154.58L287.551 133L210.592 150.656L199.504 184.661L155.807 253.325C133.371 266.927 135.589 296.485 139.502 309.564C145.241 333.105 164.938 348.582 174.068 353.378C179.808 355.47 182.982 350.762 183.851 348.146Z" fill="#F1D5CA"/>
<path d="M133 491C114.941 503.397 44.2237 547.994 40.1243 551.681C28.5148 562.121 25.2899 569.298 24 583" stroke="black" stroke-width="4" stroke-linecap="round"/>
<path d="M312 529C315.882 517.93 317.306 466.358 323 445" stroke="black" stroke-width="4" stroke-linecap="round"/>
<path d="M311.345 529C309.29 555.495 316.276 619.989 336 666" stroke="black" stroke-width="4" stroke-linecap="round"/>
<path d="M336 489C368.049 513.206 430.838 531.523 436.07 534.14C441.303 536.757 453.73 544.607 457 559" stroke="black" stroke-width="4" stroke-linecap="round"/>
<path d="M136 491C179.347 536.131 207.263 571.841 227.029 579.728C222.911 553.438 219.096 529.646 234.181 518.604C241.984 514.004 261.828 514.004 266.691 528.463C270.376 539.417 293.48 651.236 294 677" stroke="black" stroke-width="4" stroke-linecap="round" stroke-linejoin="round"/>
<path d="M136 491C137.273 481.879 143.255 452.187 157 423" stroke="black" stroke-width="4" stroke-linecap="round"/>
<path d="M173.484 416.433C167.873 415.784 162.607 414.988 157.946 421.22C153.414 429.416 155.227 439.786 180.605 464.713C205.423 482.89 249.749 514.845 257 519" stroke="black" stroke-width="4" stroke-linecap="round"/>
<path d="M167 447C173.892 423.122 187.084 354.07 181.768 336" stroke="black" stroke-width="4" stroke-linecap="round"/>
<path d="M203.633 267.126L186.765 271C182.094 264.285 174.871 257.87 171.843 255.503C165.096 249.304 151.732 255.503 145.893 259.377C146.931 246.463 144.163 228.598 142 221.28L211.418 158C209.861 163.166 219.42 182.107 224.393 190.931C229.065 202.813 222.447 211.81 218.554 214.823C209.212 221.022 205.579 226.876 204.93 229.029C201.297 234.194 202.552 256.579 203.633 267.126Z" fill="black"/>
<path d="M236 161.348C217.718 159.261 220.317 180.913 223.902 192L195 165.913L205.082 147H223.229L236 161.348Z" fill="black"/>
<path d="M128.893 147.623C124.983 182.362 134.756 206.832 141.923 223C165.378 205.958 215.86 168.486 211.394 158.378C208.788 152.479 211.394 149.201 215.304 151.823C232.243 159.033 269.38 165.588 283.713 160.344C318.635 166.636 343.677 149.589 353.015 145.001C360.833 131.891 343.677 111.135 334.121 102.396C308.06 82.7324 243.56 80.1106 205.12 85.3543C160.817 90.598 132.802 112.884 128.893 147.623Z" fill="black"/>
<path d="M151 88C155.25 90.5714 156.312 98.3571 156.312 101.929L168 103C166.3 94.4286 155.958 89.4286 151 88Z" fill="black"/>
<path d="M232.684 342.251C208.279 310.198 203.476 282.48 202.178 270L187.25 271.97C183.615 291.938 188.765 304.374 191.794 308.096C200.621 316.503 203.26 326.925 203.476 331.085C202.957 344.222 206.722 362.394 208.669 369.838C213.861 400.315 245.449 422.384 260.593 429.609C288.113 444.322 327.013 445.811 343.023 444.717C375.216 442.089 388.024 416.911 390.404 404.65C392.481 399.921 393 375.968 393 364.583C374.826 364.583 372.879 352.635 361.845 352.104C334.585 350.79 320.306 344.222 302.133 369.838C289.8 389.543 239.823 352.323 232.684 342.251Z" fill="#DCC4BA"/>
<path d="M130 99.3097C143.2 99.3097 153.1 104.437 156.4 107L163 101.873C150.68 92.6448 135.867 96.3191 130 99.3097Z" fill="black"/>
<path d="M286.127 175.637C255.645 174.854 224.487 158.136 212.719 149.874C227.813 143.898 260.275 154.443 272.918 159.914C283.032 164.29 285.938 172.219 286.127 175.637Z" fill="black"/>
<path d="M248.545 177.68C236.198 174.773 224.137 163.06 218.861 158.213C222.196 149.728 245.345 129.08 245.344 145.979C245.344 153.714 252.444 171.95 248.545 177.68Z" fill="black"/>
<path d="M318.836 182.671C285.74 175.873 270.124 157.987 261.635 149.211C275.257 146.781 300.857 153.595 310.538 160.211C318.283 165.504 319.242 179.818 318.836 182.671Z" fill="black"/>
<path d="M363.397 175.873C312.496 180.441 296.843 160.137 287.08 152.826C299.902 147.995 337.185 154.623 347.735 159.559C356.174 163.507 363.3 172.94 363.397 175.873Z" fill="black"/>
<path d="M397.371 161.889C358.462 174.312 311.513 166.53 292.902 161.086C309.299 146.747 355.114 146.012 373.572 147.48C388.339 148.655 395.591 157.575 397.371 161.889Z" fill="black"/>
<path d="M313.161 73.7999C304.73 79.4176 263.377 85.5274 243.754 87.88C259.281 92.2525 292.794 99.5927 302.632 93.974C312.469 88.3552 313.75 78.1834 313.161 73.7999Z" fill="black"/>
<path d="M353.979 71.7846C345.524 78.2867 302.528 87.6558 282.087 91.5276C298.707 95.0116 334.429 100.328 344.36 93.7249C354.291 87.1213 354.91 76.3465 353.979 71.7846Z" fill="black"/>
<path d="M393.399 95.9983C377.492 109.427 294.491 131.515 254.979 140.881C287.694 146.197 357.818 153.39 376.594 139.632C395.37 125.874 395.621 104.81 393.399 95.9983Z" fill="black"/>
<path d="M387.701 77.1506C382.568 97.1474 380.063 114.59 369.126 123.167C340.777 126.626 299.649 110.138 297.377 98.0102C314.586 98.9249 367.711 83.7538 387.701 77.1506Z" fill="black"/>
<path d="M404.02 123.338C397.815 127.398 385.861 128.257 380.66 128.18L342.083 146.857L368.601 153.636C394.793 154.505 403.127 133.8 404.02 123.338Z" fill="black"/>
<path d="M353.133 160.023C374.579 159.499 382.964 167.892 386.479 173.798C396.504 190.633 399.033 211.579 402.171 236.767C403.642 248.574 399.123 250.453 396.287 255.789C391.056 265.628 391.056 277.435 397.594 291.865C400.427 296.894 406.094 308.917 400.863 324.662C394.836 342.804 392.364 375.168 393.671 393.534C393.235 412.556 378.633 440.758 342.018 444.696C325.89 446.008 288.404 443.516 257.02 428.298C243.289 421.641 233.874 415.573 217.136 390.91C211.469 380.196 200.79 353.126 203.405 330.562" stroke="black" stroke-width="4" stroke-linecap="round"/>
<path d="M186 271.59C182.23 261.172 166.495 243.894 146.017 261.684C136.492 271.902 131.73 297.145 146.017 324.792C148.2 329.4 155.303 341.02 166.257 350.636C170.225 353.641 179.115 357.368 182.925 348.232" stroke="black" stroke-width="4" stroke-linecap="round"/>
<path d="M180.418 323.816C178.846 324.243 174.761 324.2 170.99 320.609C169.419 318.686 167.219 313.427 170.99 307.784C172.337 306.074 176.108 303.424 180.418 306.502C182.438 292.394 179.071 278.286 172.337 270.591C170.092 268.026 163.717 263.794 156.175 267.385C149.441 270.591 140.686 282.775 147.421 301.372" stroke="black" stroke-width="4" stroke-linecap="round" stroke-linejoin="round"/>
<path d="M295.69 229.662C285.757 229.894 272.814 235.547 267.584 238.345C266.652 233.289 273.06 225.075 277.442 222.583C290.131 217.568 304.373 218.271 309.907 219.249C324.798 222.038 326.695 227.158 325.783 229.37C325.491 232.244 322.306 232.264 320.751 231.914C312.196 229.754 300.479 229.513 295.69 229.662Z" fill="black"/>
<path d="M385.373 232.984C395.308 232.793 391.342 232.596 396.681 235.232C396.56 227.927 396.978 225.672 393.506 223.967C380.625 219.384 376.239 221.707 370.748 222.946C355.981 226.441 354.291 231.761 355.292 233.983C355.699 236.911 358.882 236.794 360.423 236.369C368.884 233.791 380.582 233.038 385.373 232.984Z" fill="black"/>
<path d="M258.398 244.355L183 266.685L184.311 275.222L248.563 260.117C252.497 259.46 254.988 260.774 255.119 264.714C255.644 280.388 260.365 291.641 264.954 295.582C269.543 299.522 289.649 299.084 297.736 298.865C317.404 297.552 329.206 294.268 330.517 291.641C335.762 285.074 337.073 267.122 337.729 258.147C339.303 254.469 343.63 254.425 345.597 254.863C350.317 254.863 351.934 257.052 352.153 258.147C354.775 286.518 362.862 294.925 366.577 295.582C386.508 300.31 403.292 296.676 409.193 294.268C416.011 292.692 419.464 272.595 420.339 262.744C420.455 261.431 421.233 259.718 422.961 256.833C424.928 253.55 423.617 246.325 422.961 245.012L414.438 243.042C398.703 239.101 369.855 242.604 361.332 244.355C353.989 246.982 347.782 247.201 345.597 246.982C341.401 246.982 336.418 245.231 334.451 244.355C329.206 242.779 309.537 241.509 300.358 241.072C285.672 240.546 266.265 243.042 258.398 244.355Z" fill="black"/>
<path d="M268.138 249.539C263 252.121 263.642 257.931 263 264.387C263.514 284.528 271.349 291.714 275.203 292.79C297.039 297.955 316.948 292.79 325.297 290.208C332.57 287.959 334.075 269.766 334.931 263.095C336.257 252.767 336.858 250.83 333.646 250.185C301.535 243.084 277.129 246.526 268.138 249.539Z" fill="#AEE5FF"/>
<path d="M361.796 250.775C357.42 252.972 358.547 257.239 358 262.732C358.438 279.867 365.592 289.791 370.021 291.679C380.289 296.055 400.391 293.566 407.351 289.791C413.334 286.545 415.479 269.036 416.209 263.361C417.474 253.515 417.401 251.324 414.665 250.775C387.533 243.745 369.454 248.212 361.796 250.775Z" fill="#AEE5FF"/>
<path d="M297.752 267.769C296.701 270.382 292.495 270.164 290.524 269.728C288.421 275.476 293.152 280.31 295.781 280.832C301.037 281.877 304.104 277.784 304.98 275.607C308.134 268.814 303.228 262.761 300.38 260.584C299.723 259.931 296.438 259.278 297.752 261.891C298.803 263.981 298.19 266.68 297.752 267.769Z" fill="black"/>
<path d="M378.236 267.139C377.119 269.876 372.651 269.648 370.557 269.192C368.323 275.213 373.349 280.277 376.142 280.824C381.727 281.919 384.985 277.631 385.916 275.35C389.267 268.234 384.054 261.893 381.029 259.612C380.331 258.928 376.84 258.243 378.236 260.981C379.353 263.17 378.702 265.998 378.236 267.139Z" fill="black"/>
<path d="M285.261 67.5534C278.56 72.8402 244.264 80.7352 227.954 84.0219C241.277 86.6644 269.892 90.6039 277.772 85.2225C285.652 79.8412 286.048 71.2009 285.261 67.5534Z" fill="black"/>
<path d="M353.983 267C356.95 278.488 363.522 304.717 366.702 314.471C369.246 322.274 370.39 332.939 369.882 336.581C369.882 339.615 366.829 345.294 354.618 343.734C354.618 343.734 333.632 340.482 326 335.28" stroke="black" stroke-width="4" stroke-linecap="round"/>
<path d="M303 360C306.956 339.623 313.945 328.898 318.166 323.848C321.464 319.904 326.739 316.618 332.674 318.589C332.674 318.589 338.608 319.904 337.949 327.299" stroke="black" stroke-width="4" stroke-linecap="round"/>
<path d="M355.543 408.638C357.6 406.276 356.305 398.55 355.543 396.444L349.113 393.182C347.192 394.393 343.167 391.242 340.908 393.834C339.251 395.736 337.293 402.317 340.908 408.892L345.125 413.411L349.113 416.019C349.693 413.411 352.494 407.545 352.303 410.149C352.112 412.752 354.236 409.807 355.543 408.638Z" fill="black"/>
<path d="M358.667 366C358.667 370.876 360.667 375.143 362 378.19C356 382.457 332 384.895 314 375.752" stroke="black" stroke-width="4" stroke-linecap="round"/>
<path d="M334.487 605C325.576 573.397 319.211 544.846 325.576 516.731C327.698 511.718 329.395 503.654 338.942 503C347.216 503 358.545 505.877 355.49 533.077C355.066 536.128 353.835 542.231 352.308 544.846" stroke="black" stroke-width="4" stroke-linecap="round"/>
<path d="M319 466C324.936 474.894 340.502 497.629 350 507" stroke="black" stroke-width="4" stroke-linecap="round"/>
<path d="M252 515.516C279.771 528.097 310.771 526.21 314 513" stroke="black" stroke-width="4" stroke-linecap="round"/>
<path d="M351 545C345.162 540.52 332.189 522.728 327 513" stroke="black" stroke-width="4" stroke-linecap="round"/>
<ellipse cx="276.604" cy="256.793" rx="6.52577" ry="3.91546" transform="rotate(-30.8201 276.604 256.793)" fill="white"/>
<ellipse cx="370.355" cy="258.278" rx="6.52577" ry="3.91546" transform="rotate(-30.8201 370.355 258.278)" fill="white"/>
</g>
<defs>
<clipPath id="clip0_369_54">
<rect width="550" height="550" fill="white"/>
</clipPath>
</defs>
</svg>
