<svg width="60" height="60" viewBox="0 0 60 60" fill="none" xmlns="http://www.w3.org/2000/svg">
<path d="M30 30.5C30 27.9804 31.0009 25.5641 32.7825 23.7825C34.5641 22.0009 36.9804 21 39.5 21C42.0196 21 44.4359 22.0009 46.2175 23.7825C47.9991 25.5641 49 27.9804 49 30.5C49 33.0196 47.9991 35.4359 46.2175 37.2175C44.4359 38.9991 42.0196 40 39.5 40C36.9804 40 34.5641 38.9991 32.7825 37.2175C31.0009 35.4359 30 33.0196 30 30.5Z" fill="#1ABCFE"/>
<path d="M11 49.5C11 46.9804 12.0009 44.5641 13.7825 42.7825C15.5641 41.0009 17.9804 40 20.5 40H30V49.5C30 52.0196 28.9991 54.4359 27.2175 56.2175C25.4359 57.9991 23.0196 59 20.5 59C17.9804 59 15.5641 57.9991 13.7825 56.2175C12.0009 54.4359 11 52.0196 11 49.5Z" fill="#0ACF83"/>
<path d="M30 2V21H39.5C42.0196 21 44.4359 19.9991 46.2175 18.2175C47.9991 16.4359 49 14.0196 49 11.5C49 8.98044 47.9991 6.56408 46.2175 4.78249C44.4359 3.00089 42.0196 2 39.5 2L30 2Z" fill="#FF7262"/>
<path d="M11 11.5C11 14.0196 12.0009 16.4359 13.7825 18.2175C15.5641 19.9991 17.9804 21 20.5 21H30V2H20.5C17.9804 2 15.5641 3.00089 13.7825 4.78249C12.0009 6.56408 11 8.98044 11 11.5Z" fill="#F24E1E"/>
<path d="M11 30.5C11 33.0196 12.0009 35.4359 13.7825 37.2175C15.5641 38.9991 17.9804 40 20.5 40H30V21H20.5C17.9804 21 15.5641 22.0009 13.7825 23.7825C12.0009 25.5641 11 27.9804 11 30.5Z" fill="#A259FF"/>
</svg>
