<svg width="60" height="60" viewBox="0 0 60 60" fill="none" xmlns="http://www.w3.org/2000/svg">
<g clip-path="url(#clip0_380_16)">
<path d="M6.23368 47.8526L8.70332 52.1154C9.2165 53.0128 9.95418 53.7179 10.8202 54.2308L19.6403 38.9744H2C2 39.9679 2.25659 40.9615 2.76976 41.859L6.23368 47.8526Z" fill="#0066DA"/>
<path d="M30 21.0256L21.1798 5.76923C20.3139 6.28205 19.5762 6.98718 19.063 7.88461L2.76976 36.0897C2.26602 36.9678 2.00067 37.9622 2 38.9744H19.6403L30 21.0256Z" fill="#00AC47"/>
<path d="M49.1798 54.2308C50.0458 53.7179 50.7835 53.0128 51.2967 52.1154L52.323 50.3526L57.2302 41.859C57.7434 40.9615 58 39.9679 58 38.9744H40.3584L44.1123 46.3462L49.1798 54.2308Z" fill="#EA4335"/>
<path d="M30 21.0256L38.8202 5.76923C37.9542 5.25641 36.9599 5 35.9336 5H24.0664C23.0401 5 22.0458 5.28846 21.1798 5.76923L30 21.0256Z" fill="#00832D"/>
<path d="M40.3597 38.9744H19.6403L10.8202 54.2308C11.6861 54.7436 12.6804 55 13.7068 55H46.2932C47.3196 55 48.3139 54.7115 49.1798 54.2308L40.3597 38.9744Z" fill="#2684FC"/>
<path d="M49.0836 21.9872L40.937 7.88461C40.4238 6.98718 39.6861 6.28205 38.8202 5.76923L30 21.0256L40.3597 38.9744H57.9679C57.9679 37.9808 57.7113 36.9872 57.1982 36.0897L49.0836 21.9872Z" fill="#FFBA00"/>
</g>
<defs>
<clipPath id="clip0_380_16">
<rect width="56" height="50" fill="white" transform="translate(2 5)"/>
</clipPath>
</defs>
</svg>
