<svg xmlns="http://www.w3.org/2000/svg" width="52" height="52" viewBox="0 0 26 26">
<defs>
    <style>
      .cls-1 {
        fill: #fff;
      }

      .cls-2 {
        fill: #0a66c2;
        fill-rule: evenodd;
      }
    </style>
  </defs>
  <rect class="cls-1" x="3" y="3" width="20" height="20"/>
  <path id="icon-linkedin" class="cls-2" d="M1247,432.912v22.176a1.914,1.914,0,0,1-1.91,1.912h-22.18a1.914,1.914,0,0,1-1.91-1.912V432.912a1.914,1.914,0,0,1,1.91-1.912h22.18A1.914,1.914,0,0,1,1247,432.912Zm-18.35,8.029h-3.83v12.235h3.83V440.941Zm0.34-4.206a2.2,2.2,0,0,0-2.19-2.217h-0.06a2.218,2.218,0,1,0,0,4.435h0a2.2,2.2,0,0,0,2.25-2.148h0v-0.069Zm14.19,9.009c0-3.679-2.34-5.109-4.67-5.109a4.364,4.364,0,0,0-3.87,1.973h-0.1v-1.667h-3.6v12.235h3.82v-6.507a2.544,2.544,0,0,1,2.3-2.738h0.14c1.22,0,2.12.765,2.12,2.692v6.553h3.83Z" transform="translate(-1221 -431)"/>
</svg>
