<svg width="10" height="10" viewBox="0 0 10 10" fill="none" xmlns="http://www.w3.org/2000/svg">
<path d="M0.46967 8.46967C0.176777 8.76256 0.176777 9.23744 0.46967 9.53033C0.762563 9.82322 1.23744 9.82322 1.53033 9.53033L0.46967 8.46967ZM9.52817 1.22183C9.52817 0.807612 9.19239 0.471826 8.77817 0.471826L2.02817 0.471825C1.61396 0.471825 1.27817 0.807612 1.27817 1.22183C1.27817 1.63604 1.61396 1.97183 2.02817 1.97183H8.02817V7.97183C8.02817 8.38604 8.36396 8.72183 8.77817 8.72183C9.19239 8.72183 9.52817 8.38604 9.52817 7.97183L9.52817 1.22183ZM1.53033 9.53033L9.3085 1.75216L8.24784 0.691495L0.46967 8.46967L1.53033 9.53033Z" fill="#C0C4C9"/>
</svg>
