<svg width="75" height="50" viewBox="0 0 75 50" fill="none" xmlns="http://www.w3.org/2000/svg">
<g clip-path="url(#clip0_3_30)">
<path d="M8.33331 14.3333C9.16665 13.5 9.99998 12.8333 11.3333 12.1667C12.6666 11.6667 13.8333 11.5 15.1666 11.5C18 11.5 20.1666 12.5 21.8333 14.5C23.5 16.5 24.1666 19.5 24.1666 23.5V39H15.6666V23.5C15.6666 21.5 15.3333 20 14.8333 19.1667C14.3333 18.3333 13.5 18 12.3333 18C11.3333 18 10.5 18.1667 9.83331 18.3333C9.16665 18.6667 8.49998 19 8.16665 19.5V38.8333H-0.166687L-2.03401e-05 0H8.33331V14.3333Z" fill="#E25900"/>
<path d="M37 29.6667L41.5 12H50.1666L41.3333 39H32.8333L24 12H32.6666L37 29.6667Z" fill="#E25900"/>
<path d="M52 15.3333C53.8333 12.6667 56.5 11.5 59.8333 11.5C61.3333 11.5 62.6666 12 63.6666 12.5C64.3333 13 65.5 13.6667 66 14.5L66.5 12H74.3333V38.8333C74.3333 42.3333 73.1667 45.1667 70.8333 47.1667C68.3333 49 64.8333 50 60.6666 50C59.3333 50 57.8333 49.8333 56.3333 49.5C54.8333 49.1667 53.3333 48.6667 52 48L54 42C54.8333 42.3333 55.8333 42.6667 56.8333 42.8333C58 43.1667 59.1666 43.3333 60.6666 43.3333C62.5 43.3333 63.6667 42.8333 64.5 42.1667C65.3333 41.5 66 40.3333 66 38.8333V36.6667C65.1666 37.6667 64.3333 38.3333 63.3333 38.8333C62.3333 39.3333 61.1667 39.6667 59.8333 39.6667C56.5 39.6667 53.8333 38.5 52 36C50.1666 33.5 49.1666 30.1667 49.1666 26C49.3333 21.6667 50.1666 18 52 15.3333ZM58.6666 31.1667C59.3333 32.3333 60.3333 33 61.8333 33C62.8333 33 63.5 32.8333 64.1666 32.5C64.8333 32.1667 65.3333 31.6667 65.8333 31.1667V20C65.3333 19.3333 64.8333 18.8333 64.1666 18.5C63.5 18.1667 62.6666 18 61.8333 18C60.3333 18 59.3333 18.8333 58.5 20.1667C57.8333 21.5 57.3333 23.6667 57.3333 25.8333C57.6667 28 58 30 58.6666 31.1667Z" fill="#E25900"/>
</g>
<defs>
<clipPath id="clip0_3_30">
<rect width="75" height="50" fill="white"/>
</clipPath>
</defs>
</svg>
