<svg width="159" height="27" viewBox="0 0 159 27" fill="none" xmlns="http://www.w3.org/2000/svg">
<defs>
    <style>
    @media (prefers-color-scheme: dark) {
    .cls-1 {
        fill: #fff;
    }
    }
</style>
</defs>
<path class="cls-1" d="M4.97706 0.773315H0V25.6534H4.97706V0.773315Z" fill="black"/>
<path class="cls-1" d="M14.9364 0.773315H9.95935V25.6534H14.9364V0.773315Z" fill="black"/>
<path class="cls-1" d="M24.8169 0.773315H19.8398V25.6534H24.8169V0.773315Z" fill="black"/>
<path class="cls-1" d="M61.5661 0.773315H56.5891V25.6534H61.5661V0.773315Z" fill="black"/>
<path class="cls-1" d="M71.2835 0.773315H66.3064V25.6534H71.2835V0.773315Z" fill="black"/>
<path class="cls-1" d="M81.2902 0.773315H76.3131V25.6534H81.2902V0.773315Z" fill="black"/>
<path class="cls-1" d="M111 20.7133H86.12V25.6903H111V20.7133Z" fill="black"/>
<path class="cls-1" d="M111 10.7538H86.12V15.7308H111V10.7538Z" fill="black"/>
<path class="cls-1" d="M111 0.741821H86.12V5.71888H111V0.741821Z" fill="black"/>
<path class="cls-1" d="M40.6635 21.2498C39.0619 21.2509 37.4959 20.7769 36.1637 19.8878C34.8315 18.9987 33.7928 17.7345 33.1792 16.2551C32.5656 14.7757 32.4045 13.1475 32.7163 11.5765C33.0281 10.0055 33.7989 8.56228 34.931 7.42938C36.0632 6.29647 37.5059 5.52479 39.0767 5.21194C40.6475 4.8991 42.2758 5.05913 43.7556 5.67182C45.2354 6.2845 46.5003 7.3223 47.3903 8.65395C48.2802 9.98559 48.7552 11.5513 48.7552 13.1529C48.7524 15.2986 47.8992 17.3557 46.3825 18.8734C44.8657 20.3911 42.8092 21.2457 40.6635 21.2498V21.2498ZM40.6635 0C38.0621 0 35.5192 0.771405 33.3562 2.21666C31.1932 3.66192 29.5073 5.71613 28.5118 8.11951C27.5163 10.5229 27.2558 13.1675 27.7634 15.7189C28.2709 18.2703 29.5236 20.6139 31.363 22.4534C33.2025 24.2929 35.5461 25.5456 38.0975 26.0531C40.6489 26.5606 43.2936 26.3001 45.6969 25.3046C48.1003 24.3091 50.1545 22.6233 51.5998 20.4603C53.045 18.2973 53.8164 15.7543 53.8164 13.1529C53.8164 11.4256 53.4762 9.71529 52.8152 8.11951C52.1542 6.52372 51.1854 5.07376 49.964 3.8524C48.7427 2.63104 47.2927 1.6622 45.6969 1.00121C44.1011 0.34021 42.3908 0 40.6635 0" fill="black"/>
<path class="cls-1" d="M130.452 26V1H124V26H130.452Z" fill="black"/>
<path class="cls-1" d="M145.495 26C153.335 26 159 21.2399 159 13.4813C159 5.72264 153.335 1 145.458 1H134.954V26H145.495ZM145.458 20.3778H141.406V6.62219H145.495C150.072 6.62219 152.398 9.62069 152.398 13.4813C152.398 17.1919 149.847 20.3778 145.458 20.3778Z" fill="black"/>
</svg>
