<svg width="184" height="60" viewBox="0 0 184 60" fill="none" xmlns="http://www.w3.org/2000/svg">
<g clip-path="url(#clip0_6_73)">
<path class="cls-1" d="M1.21426e-05 30.0444C-0.0889627 13.4222 13.3462 -2.76136e-05 29.9845 -0.0889165C46.6228 -0.177805 60.058 13.2444 60.147 29.8666C60.236 46.4889 46.8008 59.9111 30.1625 60H30.0735C13.5242 60 0.088987 46.5778 1.21426e-05 30.0444ZM0.889761 30.0444C0.889761 46.1333 13.9691 59.2 30.0735 59.2C46.178 59.2 59.2573 46.1333 59.2573 30.0444C59.2573 13.9555 46.2669 0.97775 30.1625 0.888861H30.0735C13.9691 0.888861 0.889761 13.9555 0.889761 30.0444Z" fill="#2B2B2B"/>
<path class="cls-1" d="M21.354 20.8C22.2437 20.4445 23.1335 19.9111 23.8453 19.2C24.1122 20.4445 24.6461 21.6 25.4468 22.6667C24.735 22.9334 24.0232 23.2889 23.4894 23.8223C23.1335 22.6667 22.3327 21.6 21.354 20.8V20.8ZM31.4971 15.4667C30.4294 15.3778 29.3617 15.5556 28.294 15.9111C28.1161 14.2223 27.4933 12.6223 26.5145 11.2889C26.6035 11.2 29.0948 10.2223 30.6963 10.4889C32.2979 10.7556 31.5861 14.1334 31.4971 15.4667ZM33.0097 45.3334L33.9884 45.9556H25.8027C26.6035 45.5111 27.3153 45.1556 27.4043 44.8C27.7602 43.2889 27.7602 41.6 27.4043 40.0889C26.6925 38.6667 25.4468 37.6 23.9343 37.0667C23.4004 37.1556 22.8666 37.4223 22.3327 37.6889L23.2225 38.3111C22.4217 38.8445 21.7099 39.5556 21.265 40.4445C20.8201 39.9111 20.2863 39.4667 19.7524 39.0223C20.1973 38.1334 20.9091 37.4223 21.7989 36.8889L22.2437 37.3334C22.5996 37.0667 22.9555 36.8 23.4004 36.7111C21.8878 36.1778 20.2863 35.7334 18.6847 35.5556V37.1556C16.9052 36.9778 15.2147 37.1556 13.5242 37.7778C13.5242 37.6 12.9904 35.1111 13.6132 33.6C14.236 32.0889 17.617 33.6889 19.0406 33.9556C18.9517 34.3111 18.8627 34.7556 18.7737 35.1111C19.9304 34.9334 20.9981 34.8445 22.1548 34.9334C21.6209 34.1334 20.8201 33.5111 19.9304 33.1556C18.9517 32.7111 18.1509 32.1778 17.3501 31.4667L16.0155 32.1778C15.7486 30.4889 14.8588 28.8 13.7022 27.5556C15.0368 27.2889 16.2824 26.7556 17.4391 26.1334C17.617 27.3778 17.884 29.9556 18.7737 31.1111C18.2399 31.1111 17.795 31.2889 17.3501 31.5556C18.2399 32.1778 19.3076 32.6223 20.3753 32.8889C20.2863 32.4445 20.2863 32 20.3753 31.5556H19.7524C19.6635 30.7556 19.6635 30.0445 19.8414 29.2445C20.4642 29.1556 21.0871 29.2445 21.6209 29.4223C21.265 30.1334 21.0871 30.8445 21.0871 31.6445H20.3753C20.3753 32.1778 20.4642 32.6223 20.7312 33.0667C21.8878 33.4223 22.9555 34.2223 23.5784 35.2889L25.9807 35.9111C25.9807 35.4667 25.8917 35.0223 25.7138 34.6667L25.0909 34.8445C24.913 34.0445 24.5571 33.3334 24.0232 32.8C24.5571 32.5334 25.1799 32.2667 25.8027 32.1778C26.1586 32.8889 26.3366 33.6 26.4256 34.4H25.7138C25.9807 34.8445 26.1586 35.2889 26.2476 35.8223L27.6712 36.4445C27.8492 34.3111 27.1374 32.2667 25.8027 30.6667L24.3791 31.8223C23.9343 29.9556 21.176 27.5556 21.176 27.5556C22.2437 27.0223 23.2225 26.3111 24.1122 25.4223C25.8027 26.3111 27.0484 28.8889 27.3153 29.6L25.9807 30.3111L27.5822 31.6445L28.2051 32.5334C28.561 32.2667 28.8279 31.9111 29.0948 31.4667L28.2051 31.2C28.8279 30.3111 29.1838 29.3334 29.3617 28.2667C29.9846 28.7111 30.6963 28.9778 31.4081 29.0667C31.3192 30.1334 30.9633 31.2 30.3404 32.0889L29.4507 31.6445C29.2728 32.1778 29.0058 32.7111 28.561 33.1556C29.0948 34.3111 29.4507 35.6445 29.9846 36.8889C33.1876 34.2223 32.2979 29.1556 31.6751 26.8445L30.1625 28C29.0948 26.3111 27.6712 24.9778 25.9807 24C26.0697 23.9111 27.9381 21.6 29.7176 21.1556C31.4971 20.7111 32.3869 24.6223 33.1876 26.1334L32.031 26.7556C32.8317 28 33.4546 29.3334 33.7215 30.7556L35.1451 29.6L34.5223 29.3334C34.9671 28.4445 35.6789 27.7334 36.5687 27.2C37.0136 27.7334 37.5474 28.1778 38.0813 28.5334C37.2805 29.0667 36.5687 29.7778 36.1238 30.6667L35.323 29.8667C34.7002 30.6667 34.1664 31.6445 33.8105 32.6223C33.8994 33.6889 33.8105 34.8445 33.5435 35.9111C34.4333 35.3778 35.412 35.1111 36.4797 35.0223C36.7466 33.9556 37.3695 33.1556 38.3482 32.6223L37.3695 31.4667C38.4372 30.4 40.4836 28.4445 41.6403 28.1778C42.708 29.1556 43.5087 30.3111 44.0426 31.6445C42.3521 32 40.7505 32.8 39.4159 33.9556L38.6151 32.8C38.0813 33.4223 37.7254 34.1334 37.6364 34.9334C38.971 34.8445 40.3946 34.9334 41.7292 35.1111C41.8182 34.5778 41.9072 34.1334 41.8182 33.6C42.53 33.5111 45.3772 33.6 46.9787 34.7556C46.6228 35.9111 46.3559 37.1556 46.3559 38.4C46.3559 38.4 43.0639 36.9778 41.1954 37.3334C41.3733 36.8 41.5513 36.1778 41.6403 35.6445C39.7718 35.4667 37.9033 35.7334 36.1238 36.4445L37.9033 36.8C37.9923 36.6223 38.0813 36.3556 38.0813 36.1778C39.06 36.3556 39.9497 36.8889 40.6615 37.6C40.1277 38.0445 39.7718 38.6667 39.5938 39.2889C38.882 38.6667 37.9923 38.2223 37.0136 37.9556L37.6364 36.9778C36.8356 36.8889 36.0348 36.8 35.2341 36.8889L33.8105 37.8667C33.2766 38.4 32.8317 39.0223 32.5648 39.7334C32.8317 40.0889 32.9207 40.5334 32.9207 40.9778C33.0097 41.6889 32.6538 42.3111 32.031 42.6667C32.031 43.6445 32.3869 44.6223 33.0097 45.3334ZM32.1199 40.8C32.2089 40.4445 32.031 40.0889 31.6751 39.9111C31.3192 40 31.1412 40.3556 31.1412 40.7111C31.0522 41.0667 31.2302 41.4223 31.5861 41.6C31.942 41.5111 32.2089 41.1556 32.1199 40.8ZM31.4971 39.2C30.8743 39.3778 30.6074 40.0889 30.7853 41.0667C30.6963 40.4445 30.9633 39.8223 31.4081 39.3778C31.6751 39.2 31.4971 39.1111 31.4971 39.1111V39.2V39.2ZM26.0697 20.4445C25.2689 18.8445 24.1122 17.4223 22.6886 16.3556C22.7776 16.2667 24.735 14.4889 26.3366 14.1334C27.9381 13.7778 28.472 17.6 28.9169 18.9334L27.4043 19.5556C27.5822 20.0889 27.5822 20.6223 27.4043 21.1556C27.3153 20.7111 27.2263 20.1778 27.0484 19.7334L26.0697 20.4445V20.4445ZM14.0581 29.4223C13.7022 29.8667 13.6132 31.8223 13.7022 33.1556C12.0116 32.6223 10.2321 32.4445 8.45264 32.5334C8.80854 31.2889 8.98649 30.0445 8.80854 28.8C9.60931 29.4223 12.8124 29.5111 14.0581 29.4223ZM22.1548 25.1556C20.9091 25.2445 19.7524 25.6889 18.6847 26.3111C18.5958 24.6223 16.9942 22.2223 16.1934 20.9778C17.795 20.8889 20.6422 19.4667 20.6422 19.4667C20.2863 21.0667 21.176 23.5556 22.1548 25.1556C22.0658 25.1556 22.1548 25.1556 22.1548 25.1556V25.1556ZM35.501 17.3334C34.6112 17.1556 33.7215 17.1556 32.8317 17.3334C32.6538 16.1778 32.4758 13.7778 32.9207 12.8C34.0774 12.6223 35.2341 12.7111 36.3907 13.0667C35.7679 14.4 35.412 15.8223 35.501 17.3334ZM20.6422 18.7556C20.6422 18.7556 19.1296 16.5334 17.884 16.0889C18.5958 15.5556 19.2186 14.8445 19.6635 14.1334C20.8201 14.7556 21.7099 15.6445 22.3327 16.8C21.6209 17.3334 21.0871 18.0445 20.6422 18.7556ZM37.9923 24.8889C39.6828 24 41.3733 20.8 41.3733 20.8C42.1741 21.7778 43.0639 22.5778 44.1316 23.2889C43.5977 25.1556 41.4623 27.0223 40.8395 27.3778C40.5726 27.0223 40.3056 26.6667 39.9497 26.4C39.2379 27.1111 38.7041 28.0889 38.4372 29.0667C38.6151 28 39.06 27.0223 39.5938 26.1334L37.9923 24.8889ZM46 34.0445C46.178 33.4223 45.3772 31.3778 44.6654 29.9556C46.7118 29.7778 48.6693 29.1556 50.4488 28.0889C50.6267 29.5111 51.0716 30.9334 51.7834 32.1778C50.7157 32 47.2457 33.3334 46 34.0445ZM43.2418 26.4889C44.6654 25.6 46.6228 23.7334 47.0677 22.2223C47.9575 23.4667 49.0252 24.5334 50.2708 25.4223C49.0252 26.1334 46.5339 27.6445 45.7331 28.9778C45.1103 27.9111 44.3095 27.1111 43.2418 26.4889V26.4889ZM36.1238 19.3778C36.6577 18.3111 37.8143 15.2889 37.7254 14.4C38.7931 15.0223 40.0387 15.3778 41.2844 15.5556C40.4836 17.0667 39.9497 18.7556 39.7718 20.4445C38.6151 19.8223 36.7466 19.1111 36.2128 19.2889L36.1238 19.3778V19.3778ZM34.9671 24.7111C34.7002 25.8667 34.1664 27.0223 33.4546 28C33.9884 26.9334 34.2553 25.7778 34.3443 24.5334L32.9207 24.1778C33.8105 23.0223 33.9884 20.4445 34.0774 19.2C35.323 19.8223 36.5687 20.2667 37.9033 20.4445C36.8356 21.3334 36.1238 23.6445 35.9459 25.2445L34.9671 24.7111V24.7111ZM29.7176 17.6889C30.6074 17.6889 31.4081 17.5111 32.2089 17.1556C32.2089 18.4 32.4758 19.5556 32.9207 20.7111C32.031 20.7111 31.2302 20.8889 30.4294 21.2445C30.4294 20 30.1625 18.8445 29.7176 17.6889ZM46.7118 18.4889C45.8221 19.2 45.0213 20.0889 44.5764 21.1556C43.9536 20.7111 43.3308 20.4445 42.619 20.2667C42.9749 19.3778 43.5977 17.6 44.2205 17.0667C45.1103 17.3334 46 17.7778 46.7118 18.4V18.4889V18.4889ZM14.0581 25.3334C13.5242 23.9111 11.2998 22.2223 11.2998 22.2223C12.1006 21.6889 12.8124 21.1556 13.4352 20.4445C14.6809 21.1556 15.6596 22.1334 16.2824 23.3778C15.4816 23.9111 14.6809 24.5334 14.0581 25.3334Z" fill="#2B2B2B"/>
<path class="cls-1" d="M14.6808 45.6H45.3772V46.0445H14.6808V45.6ZM12.9013 48.6223H12.7234C8.18567 44.4445 5.42745 38.7556 4.80463 32.6223C4.8936 32.4445 4.98258 32.4445 5.16053 32.4445L5.2495 32.5334C5.87232 38.4889 8.63054 44.0889 13.0793 48.1778C13.1683 48.2667 13.1683 48.4445 13.0793 48.5334H12.9013V48.6223V48.6223ZM47.1567 48.6223H46.9787C46.8897 48.5334 46.8897 48.3556 46.9787 48.2667C51.4274 44.1778 54.1857 38.5778 54.8085 32.5334C54.7195 32.3556 54.8085 32.2667 54.9864 32.1778C55.1644 32.0889 55.2534 32.1778 55.3423 32.3556C55.3423 32.4445 55.3423 32.5334 55.2534 32.6223C54.6305 38.7556 51.7834 44.4445 47.3346 48.6223H47.1567Z" fill="#2B2B2B"/>
<path class="cls-1" d="M72.6035 27.3778H69.3114V27.0222H69.6673C69.8453 27.0222 69.9342 27.0222 70.0232 26.9333C70.1122 26.9333 70.2011 26.8444 70.2901 26.7555C70.3791 26.6666 70.3791 26.5778 70.3791 26.4V21.1555C70.3791 21.0666 70.3791 20.9778 70.2901 20.8889C70.2901 20.8 70.2011 20.7111 70.0232 20.7111C69.9342 20.7111 69.7563 20.6222 69.6673 20.6222C69.5783 20.6222 69.4004 20.5333 69.3114 20.5333V20.1778H72.6035V20.5333H72.2476C72.0696 20.5333 71.9806 20.6222 71.8917 20.6222C71.8027 20.6222 71.7137 20.7111 71.6247 20.8C71.6247 20.8889 71.5358 20.9778 71.5358 21.0666V26.3111C71.5358 26.4 71.5358 26.4889 71.6247 26.5778C71.7137 26.6666 71.7137 26.7555 71.8917 26.7555C71.9806 26.7555 72.0696 26.8444 72.2476 26.8444C72.4255 26.8444 72.5145 26.9333 72.6924 26.9333L72.6035 27.3778V27.3778ZM80.8781 20.5333C80.7892 20.5333 80.6112 20.5333 80.4333 20.6222C80.2553 20.7111 80.0774 20.7111 79.9884 20.8C79.8994 20.8889 79.8104 21.0666 79.7215 21.2444C79.7215 21.5111 79.6325 21.7778 79.6325 22.1333V27.3778H79.1876L74.8278 21.5111V25.2444C74.8278 25.6889 74.8278 25.9555 74.9168 26.2222C75.0058 26.4889 75.0058 26.5778 75.1837 26.6666C75.2727 26.7555 75.4507 26.8444 75.6286 26.8444C75.8955 26.9333 76.0735 26.9333 76.0735 26.9333V27.3778H73.1373V27.0222C73.2263 27.0222 73.4042 27.0222 73.5822 26.9333C73.7601 26.8444 73.9381 26.8444 74.0271 26.7555C74.116 26.6666 74.205 26.4889 74.294 26.3111C74.294 26.1333 74.383 25.7778 74.383 25.3333V21.7778C74.383 21.6 74.383 21.5111 74.294 21.3333C74.205 21.1555 74.205 21.0666 74.116 20.9778C74.0271 20.8889 73.8491 20.8 73.5822 20.7111C73.4042 20.6222 73.2263 20.6222 73.0483 20.6222V20.2666H75.0948L79.1876 25.7778V22.3111C79.1876 21.8666 79.1876 21.6 79.0986 21.3333C79.0097 21.0666 79.0097 20.9778 78.8317 20.8889C78.7427 20.8 78.5648 20.8 78.3868 20.7111C78.2089 20.6222 78.0309 20.6222 77.853 20.6222V20.2666H80.7892L80.8781 20.5333V20.5333ZM87.3733 22.1333H87.0174C87.0174 22.0444 86.9284 21.8666 86.8395 21.6889C86.7505 21.5111 86.6615 21.3333 86.5725 21.2444C86.4836 21.0666 86.3946 20.9778 86.2166 20.8C86.1277 20.7111 85.9497 20.6222 85.8607 20.6222H84.793V26.4C84.793 26.4889 84.793 26.5778 84.882 26.6666C84.971 26.7555 84.971 26.8444 85.1489 26.8444C85.2379 26.8444 85.3269 26.9333 85.5048 26.9333C85.6828 26.9333 85.8607 27.0222 85.9497 27.0222V27.3778H82.5687V27.0222H83.0135C83.1915 27.0222 83.3694 26.9333 83.4584 26.9333C83.5474 26.9333 83.6364 26.8444 83.7253 26.7555C83.8143 26.6666 83.8143 26.5778 83.8143 26.4V20.6222H82.7466C82.6576 20.6222 82.4797 20.7111 82.3907 20.8C82.3017 20.8889 82.1238 21.0666 82.0348 21.2444C81.9458 21.4222 81.8569 21.6 81.7679 21.6889C81.6789 21.8666 81.6789 22.0444 81.5899 22.1333H81.0561V20.1778H87.3733V22.1333V22.1333ZM93.9574 25.2444L93.7795 27.3778H87.8182V27.0222H88.263C88.441 27.0222 88.53 26.9333 88.6189 26.9333C88.7079 26.8444 88.7969 26.8444 88.8859 26.7555C88.8859 26.6666 88.9748 26.5778 88.9748 26.4889V21.2444C88.9748 21.1555 88.9749 21.0666 88.8859 20.9778C88.8859 20.8889 88.7969 20.8 88.6189 20.8C88.53 20.8 88.441 20.7111 88.263 20.7111C88.0851 20.7111 87.9961 20.6222 87.9072 20.6222V20.2666H93.5126V22.0444H93.1567C93.0677 21.7778 92.9787 21.5111 92.7118 21.2444C92.4449 20.9778 92.2669 20.8 92.089 20.8H90.0425V23.6444H90.8433C91.1102 23.6444 91.2882 23.6444 91.3772 23.5555C91.4661 23.4666 91.6441 23.4666 91.7331 23.2889C91.822 23.2 91.911 23.0222 91.911 22.9333C92 22.7555 92 22.5778 92 22.4889H92.3559V25.3333H92C92 25.1555 91.911 24.9778 91.911 24.8C91.822 24.6222 91.822 24.4444 91.7331 24.4444C91.6441 24.3555 91.4661 24.2666 91.3772 24.1778C91.2882 24.1778 91.1102 24.0889 90.8433 24.0889H90.0425V26.2222C90.0425 26.4 90.0426 26.5778 90.1315 26.7555C90.2205 26.9333 90.2205 26.9333 90.3095 27.0222C90.3984 27.1111 90.4874 27.1111 90.6654 27.1111H92.1779C92.2669 27.1111 92.4449 27.1111 92.5338 27.0222C92.7118 27.0222 92.8008 26.9333 92.8008 26.8444C92.9787 26.6666 93.1567 26.4 93.3346 26.1333L93.6905 25.4222H93.9574V25.2444V25.2444ZM101.787 27.3778H99.8298C99.3849 26.6666 99.029 26.1333 98.6731 25.6C98.3172 25.0666 97.9613 24.6222 97.5164 24.0889H96.8046V26.4C96.8046 26.4889 96.8046 26.6666 96.8936 26.7555C96.8936 26.8444 96.9826 26.9333 97.1605 26.9333C97.2495 26.9333 97.3385 27.0222 97.5164 27.0222H97.8723V27.3778H94.8472V27.0222H95.2031C95.381 27.0222 95.47 27.0222 95.559 26.9333C95.648 26.9333 95.7369 26.8444 95.7369 26.7555C95.8259 26.6666 95.8259 26.5778 95.8259 26.4V21.1555C95.8259 21.0666 95.8259 20.8889 95.7369 20.8C95.7369 20.7111 95.648 20.6222 95.47 20.6222C95.381 20.6222 95.2921 20.5333 95.1141 20.5333C94.9362 20.5333 94.8472 20.5333 94.7582 20.4444V20.0889H98.0503C98.3172 20.0889 98.6731 20.0889 98.94 20.1778C99.207 20.2666 99.4739 20.3555 99.6518 20.4444L100.186 20.9778C100.275 21.1555 100.364 21.4222 100.364 21.7778C100.364 22.0444 100.364 22.3111 100.275 22.4889C100.186 22.6666 100.097 22.8444 99.9188 23.0222C99.7408 23.2 99.5629 23.2889 99.3849 23.3778C99.207 23.4666 98.94 23.5555 98.6731 23.6444C99.029 24.0889 99.2959 24.5333 99.5629 24.8C99.8298 25.1555 100.097 25.5111 100.453 25.9555C100.631 26.1333 100.72 26.3111 100.897 26.4C101.075 26.4889 101.164 26.5778 101.253 26.6666C101.342 26.7555 101.431 26.7555 101.609 26.7555H101.965V27.3778H101.787V27.3778ZM99.118 22.0444C99.118 21.6 99.029 21.2444 98.7621 20.9778C98.4952 20.7111 98.1393 20.6222 97.6944 20.6222H96.8046V23.7333H97.4275C97.8723 23.7333 98.3172 23.5555 98.5841 23.2889C98.94 22.9333 99.118 22.4889 99.118 22.0444V22.0444Z" fill="#2B2B2B"/>
<path class="cls-1" d="M108.727 27.3778H105.702V27.0222C105.969 27.0222 106.147 26.9333 106.325 26.9333C106.503 26.8444 106.592 26.8444 106.592 26.7556V26.5778L105.969 24.9778H103.478C103.389 25.2444 103.3 25.4222 103.211 25.6C103.122 25.7778 103.122 25.9556 103.033 26.0444C103.033 26.2222 102.944 26.3111 102.944 26.4V26.6667C102.944 26.8444 103.033 26.9333 103.3 27.0222C103.478 27.1111 103.745 27.1111 104.012 27.1111V27.3778H101.253V27.0222C101.342 27.0222 101.431 27.0222 101.609 26.9333C101.787 26.8444 101.876 26.8444 101.965 26.8444C102.143 26.7556 102.232 26.6667 102.321 26.5778C102.41 26.4889 102.499 26.3111 102.499 26.1333C102.855 25.2444 103.3 24.1778 103.656 23.1111C104.101 21.9556 104.456 20.9778 104.812 20.0889H105.257L107.66 26.3111C107.749 26.4 107.749 26.5778 107.837 26.6667L108.104 26.9333C108.193 27.0222 108.282 27.0222 108.371 27.0222C108.46 27.0222 108.638 27.1111 108.727 27.1111V27.3778V27.3778ZM105.88 24.4444L104.812 21.6889L103.745 24.4444H105.88ZM112.197 27.5556C111.752 27.5556 111.396 27.4667 110.952 27.2889C110.507 27.1111 110.24 26.8444 109.884 26.5778C109.617 26.2222 109.35 25.8667 109.172 25.4222C108.994 24.9778 108.905 24.4444 108.905 23.9111C108.905 23.3778 108.994 22.8444 109.172 22.3111C109.35 21.8667 109.617 21.4222 109.884 21.0667C110.151 20.7111 110.596 20.4444 110.952 20.2667C111.396 20.0889 111.841 20 112.286 20C112.642 20 112.998 20 113.265 20.0889C113.532 20.1778 113.799 20.2667 114.066 20.4444L114.244 20.0889H114.689L114.778 22.6667H114.333L114.066 21.8667C113.977 21.6 113.799 21.3333 113.71 21.1556C113.532 20.8889 113.354 20.7111 113.176 20.6222C112.909 20.5333 112.731 20.4444 112.375 20.4444C112.019 20.4444 111.752 20.5333 111.485 20.6222C111.219 20.8 110.952 20.9778 110.774 21.2444C110.596 21.5111 110.418 21.8667 110.329 22.3111C110.24 22.7556 110.151 23.2 110.151 23.7333C110.151 24.1778 110.24 24.6222 110.329 24.9778C110.418 25.3333 110.596 25.6889 110.863 25.9556C111.041 26.2222 111.308 26.4889 111.663 26.6667C111.93 26.8444 112.286 26.9333 112.642 26.9333C112.909 26.9333 113.176 26.9333 113.443 26.8444C113.71 26.7556 113.888 26.6667 114.066 26.4889C114.244 26.3111 114.422 26.1333 114.511 25.9556C114.6 25.7778 114.778 25.6 114.867 25.3333L115.222 25.5111C114.955 26.2222 114.511 26.7556 114.066 27.0222C113.443 27.3778 112.82 27.5556 112.197 27.5556V27.5556ZM121.54 22.1333H121.184C121.184 22.0444 121.095 21.8667 121.006 21.6889C120.917 21.5111 120.828 21.3333 120.739 21.2444C120.65 21.0667 120.561 20.9778 120.383 20.8C120.205 20.6222 120.116 20.6222 120.027 20.6222H118.959V26.4C118.959 26.4889 118.959 26.5778 119.048 26.6667C119.137 26.7556 119.137 26.8444 119.315 26.8444C119.404 26.8444 119.493 26.9333 119.671 26.9333C119.849 26.9333 120.027 27.0222 120.116 27.0222V27.3778H116.735V27.0222H117.18C117.358 27.0222 117.536 26.9333 117.625 26.9333C117.714 26.9333 117.803 26.8444 117.892 26.7556C117.981 26.6667 117.981 26.5778 117.981 26.4V20.6222H116.913C116.824 20.6222 116.646 20.7111 116.557 20.8C116.468 20.8889 116.29 21.0667 116.201 21.2444C116.112 21.4222 116.023 21.6 115.934 21.6889C115.845 21.8667 115.845 22.0444 115.756 22.1333H115.4V20.1778H121.718V22.1333H121.54V22.1333ZM125.277 27.3778H121.985V27.0222H122.34C122.518 27.0222 122.607 27.0222 122.696 26.9333C122.785 26.9333 122.874 26.8444 122.963 26.7556C123.052 26.6667 123.052 26.5778 123.052 26.4V21.1556C123.052 21.0667 123.052 20.9778 122.963 20.8889C122.874 20.8 122.874 20.7111 122.696 20.7111C122.607 20.7111 122.429 20.6222 122.34 20.6222C122.251 20.6222 122.073 20.5333 121.985 20.5333V20.1778H125.277V20.5333H124.921C124.832 20.5333 124.654 20.6222 124.565 20.6222C124.476 20.6222 124.387 20.7111 124.298 20.8C124.209 20.8889 124.209 20.9778 124.209 21.0667V26.3111C124.209 26.4 124.209 26.4889 124.298 26.5778C124.387 26.6667 124.387 26.7556 124.565 26.7556C124.654 26.7556 124.743 26.8444 124.921 26.8444C125.099 26.8444 125.188 26.9333 125.366 26.9333V27.3778H125.277ZM132.039 21.0667C132.395 21.4222 132.573 21.7778 132.75 22.3111C132.928 22.7556 133.017 23.2889 133.017 23.9111C133.017 24.4444 132.928 24.9778 132.75 25.5111C132.573 25.9556 132.306 26.4 131.95 26.6667C131.594 27.0222 131.238 27.2 130.882 27.3778C130.437 27.5556 129.992 27.6444 129.547 27.6444C129.014 27.6444 128.569 27.5556 128.124 27.3778C127.679 27.2 127.323 26.9333 127.056 26.5778C126.789 26.2222 126.522 25.8667 126.344 25.4222C126.166 24.9778 126.077 24.4444 126.077 23.9111C126.077 23.2889 126.166 22.8444 126.344 22.3111C126.522 21.8667 126.789 21.4222 127.145 21.1556C127.501 20.8 127.857 20.5333 128.213 20.3556C128.658 20.1778 129.102 20.0889 129.547 20.0889C129.992 20.0889 130.437 20.1778 130.882 20.3556C131.327 20.4444 131.683 20.7111 132.039 21.0667V21.0667ZM131.238 26.1333C131.416 25.8667 131.594 25.5111 131.683 25.0667C131.772 24.7111 131.772 24.2667 131.772 23.7333C131.772 23.2 131.683 22.7556 131.594 22.4C131.505 21.9556 131.327 21.6 131.149 21.3333C130.971 21.0667 130.704 20.8 130.437 20.6222C130.17 20.4444 129.814 20.3556 129.458 20.3556C129.014 20.3556 128.747 20.4444 128.391 20.6222C128.124 20.8 127.857 21.0667 127.679 21.3333C127.501 21.6 127.412 21.9556 127.323 22.4C127.234 22.8444 127.234 23.2 127.234 23.6444C127.234 24.0889 127.323 24.5333 127.323 24.9778C127.412 25.3333 127.59 25.6889 127.768 26.0444C127.946 26.3111 128.213 26.5778 128.48 26.7556C128.747 26.9333 129.102 27.0222 129.458 27.0222C129.814 27.0222 130.17 26.9333 130.437 26.7556C130.882 26.6667 131.06 26.4 131.238 26.1333ZM141.381 20.5333C141.292 20.5333 141.114 20.5333 140.936 20.6222C140.758 20.7111 140.58 20.7111 140.491 20.8C140.402 20.8889 140.313 21.0667 140.224 21.2444C140.135 21.4222 140.135 21.7778 140.135 22.1333V27.3778H139.69L135.331 21.5111V25.2444C135.331 25.6889 135.331 25.9556 135.42 26.2222C135.509 26.4889 135.598 26.5778 135.687 26.6667C135.776 26.7556 135.954 26.8444 136.132 26.8444C136.398 26.9333 136.576 26.9333 136.576 26.9333V27.3778H133.64V27.0222C133.729 27.0222 133.907 27.0222 134.085 26.9333C134.263 26.8444 134.441 26.8444 134.53 26.7556C134.619 26.6667 134.708 26.4889 134.797 26.3111C134.886 26.1333 134.886 25.7778 134.886 25.3333V21.7778C134.886 21.6 134.886 21.5111 134.797 21.3333C134.708 21.1556 134.708 21.0667 134.619 20.9778C134.53 20.8889 134.352 20.8 134.085 20.7111C133.907 20.6222 133.729 20.6222 133.551 20.6222V20.2667H135.598L139.69 25.7778V22.3111C139.69 21.8667 139.69 21.6 139.602 21.3333C139.513 21.0667 139.513 20.9778 139.335 20.8889C139.246 20.8 139.068 20.8 138.89 20.7111C138.712 20.6222 138.534 20.6222 138.356 20.6222V20.2667H141.292V20.5333H141.381V20.5333ZM151.346 23.8222C151.346 24.4444 151.257 24.9778 150.99 25.4222C150.723 25.8667 150.456 26.2222 150.101 26.4889C149.745 26.7556 149.3 27.0222 148.855 27.1111C148.41 27.2 147.876 27.2889 147.431 27.2889H144.406V26.9333H144.762C144.94 26.9333 145.029 26.9333 145.118 26.8444C145.207 26.8444 145.296 26.7556 145.296 26.6667C145.385 26.5778 145.385 26.4889 145.385 26.3111V21.1556C145.385 21.0667 145.385 20.9778 145.296 20.8889C145.296 20.8 145.207 20.7111 145.029 20.7111C144.94 20.6222 144.851 20.6222 144.673 20.6222C144.584 20.6222 144.406 20.6222 144.317 20.5333V20.1778H147.431C147.876 20.1778 148.321 20.2667 148.677 20.3556C149.033 20.4444 149.478 20.7111 149.745 20.8889C150.19 21.1556 150.545 21.6 150.723 22.0444C150.901 22.4889 151.346 23.2 151.346 23.8222V23.8222ZM150.101 23.8222C150.101 23.3778 150.012 22.9333 149.923 22.4889C149.834 22.1333 149.567 21.7778 149.389 21.5111C149.122 21.2444 148.855 20.9778 148.499 20.8889C148.143 20.8 147.787 20.6222 147.342 20.6222H146.542V26.1333C146.542 26.4 146.631 26.6667 146.808 26.7556C146.986 26.8444 147.253 26.9333 147.609 26.9333C148.054 26.9333 148.41 26.8444 148.766 26.6667C149.122 26.4889 149.389 26.3111 149.567 26.0444C149.745 25.7778 149.923 25.4222 150.012 25.0667C150.101 24.7111 150.101 24.2667 150.101 23.8222V23.8222ZM158.286 25.2444L158.108 27.3778H152.147V27.0222H152.592C152.77 27.0222 152.859 26.9333 152.948 26.9333C153.037 26.8444 153.126 26.8444 153.215 26.7556C153.215 26.6667 153.304 26.5778 153.304 26.4889V21.2444C153.304 21.1556 153.304 21.0667 153.215 20.9778C153.215 20.8889 153.126 20.8 152.948 20.8C152.859 20.8 152.77 20.7111 152.592 20.7111C152.414 20.7111 152.325 20.6222 152.236 20.6222V20.2667H157.841V22.0444H157.485C157.396 21.7778 157.308 21.5111 157.041 21.2444C156.774 20.9778 156.596 20.8 156.418 20.8H154.371V23.6444H155.172C155.439 23.6444 155.617 23.6444 155.706 23.5556C155.795 23.4667 155.973 23.4667 156.062 23.2889C156.151 23.2 156.24 23.0222 156.24 22.9333C156.329 22.7556 156.329 22.5778 156.329 22.4889H156.685V25.3333H156.329C156.329 25.1556 156.24 24.9778 156.24 24.8C156.151 24.6222 156.151 24.4444 156.062 24.4444C155.973 24.3556 155.795 24.2667 155.706 24.1778C155.617 24.1778 155.439 24.0889 155.172 24.0889H154.371V26.2222C154.371 26.4 154.371 26.5778 154.46 26.7556C154.549 26.9333 154.549 26.9333 154.638 27.0222C154.727 27.1111 154.816 27.1111 154.994 27.1111H156.507C156.596 27.1111 156.774 27.1111 156.863 27.0222C156.952 26.9333 157.13 26.9333 157.13 26.8444C157.308 26.6667 157.485 26.4 157.663 26.1333L158.019 25.4222H158.286V25.2444V25.2444ZM163.536 24.0889C163.714 24.2667 163.803 24.4444 163.892 24.6222C163.981 24.8 163.981 25.0667 163.981 25.3333C163.981 25.9556 163.714 26.4889 163.269 26.9333C162.824 27.3778 162.201 27.5556 161.489 27.5556C161.133 27.5556 160.867 27.4667 160.511 27.3778C160.155 27.2889 159.888 27.2 159.71 27.0222L159.532 27.3778H159.087L158.998 24.8889H159.443C159.532 25.1556 159.621 25.5111 159.71 25.6889C159.799 25.9556 159.977 26.1333 160.155 26.4C160.333 26.5778 160.511 26.7556 160.778 26.8444C161.044 26.9333 161.311 27.0222 161.578 27.0222C161.845 27.0222 162.023 27.0222 162.201 26.9333C162.379 26.8444 162.557 26.7556 162.646 26.6667C162.735 26.5778 162.824 26.4 162.913 26.3111C163.002 26.1333 163.002 25.9556 163.002 25.7778C163.002 25.5111 162.913 25.2444 162.735 24.9778C162.557 24.7111 162.29 24.5333 162.023 24.4444C161.845 24.3556 161.578 24.2667 161.222 24.1778C160.955 24.0889 160.689 24 160.511 23.9111C160.066 23.7333 159.799 23.4667 159.532 23.2C159.265 22.9333 159.176 22.4889 159.176 22.0444C159.176 21.7778 159.265 21.5111 159.354 21.2444C159.443 20.9778 159.621 20.8 159.799 20.6222C159.977 20.4444 160.244 20.2667 160.511 20.1778C160.778 20.0889 161.044 20 161.311 20C161.667 20 161.934 20.0889 162.201 20.1778C162.468 20.2667 162.735 20.3556 162.913 20.5333L163.091 20.1778H163.536V22.5778H163.091L162.824 21.7778C162.735 21.5111 162.646 21.3333 162.468 21.0667C162.29 20.8889 162.112 20.7111 161.934 20.6222C161.756 20.5333 161.489 20.4444 161.133 20.4444C160.778 20.4444 160.511 20.5333 160.333 20.7111C160.066 20.8889 159.977 21.1556 159.977 21.5111C159.977 21.8667 160.066 22.0444 160.155 22.3111C160.333 22.4889 160.511 22.6667 160.778 22.8444C161.044 22.9333 161.311 23.0222 161.489 23.1111C161.756 23.2 161.934 23.2889 162.201 23.3778C162.379 23.4667 162.557 23.5556 162.824 23.6444C163.269 23.8222 163.358 23.9111 163.536 24.0889V24.0889ZM168.073 27.3778H164.87V27.0222H165.226C165.404 27.0222 165.493 27.0222 165.582 26.9333C165.671 26.9333 165.76 26.8444 165.849 26.7556C165.938 26.6667 165.938 26.5778 165.938 26.4V21.1556C165.938 21.0667 165.938 20.9778 165.849 20.8889C165.849 20.8 165.76 20.7111 165.582 20.7111C165.493 20.7111 165.315 20.6222 165.226 20.6222C165.048 20.6222 164.959 20.5333 164.87 20.5333V20.1778H168.162V20.5333H167.807C167.629 20.5333 167.54 20.6222 167.451 20.6222C167.362 20.6222 167.273 20.7111 167.184 20.8C167.184 20.8889 167.095 20.9778 167.095 21.0667V26.3111C167.095 26.4 167.095 26.4889 167.184 26.5778C167.273 26.6667 167.362 26.7556 167.451 26.7556C167.54 26.7556 167.629 26.8444 167.807 26.8444C167.985 26.8444 168.073 26.9333 168.251 26.9333V27.3778H168.073V27.3778ZM175.903 24.5333C175.814 24.5333 175.725 24.5333 175.547 24.6222C175.369 24.6222 175.28 24.7111 175.191 24.7111C175.102 24.8 175.014 24.8 175.014 24.8889C175.014 24.9778 174.925 25.0667 174.925 25.2444V26.9333C174.48 27.1111 174.035 27.2889 173.59 27.3778C173.145 27.4667 172.7 27.5556 172.255 27.5556C171.81 27.5556 171.366 27.4667 170.921 27.2889C170.476 27.1111 170.12 26.8444 169.764 26.5778C169.408 26.2222 169.23 25.8667 168.963 25.4222C168.785 24.9778 168.696 24.4444 168.696 23.9111C168.696 23.3778 168.785 22.8444 168.963 22.4C169.141 21.9556 169.408 21.5111 169.764 21.1556C170.12 20.8 170.476 20.5333 170.921 20.3556C171.366 20.1778 171.81 20.0889 172.344 20.0889C172.789 20.0889 173.145 20.1778 173.412 20.2667C173.679 20.3556 173.946 20.4444 174.213 20.6222L174.391 20.2667H174.836L174.925 22.7556H174.48L174.213 21.9556C174.124 21.6889 173.946 21.4222 173.768 21.2444C173.59 21.0667 173.412 20.8889 173.145 20.7111C172.878 20.6222 172.611 20.5333 172.255 20.5333C171.899 20.5333 171.544 20.6222 171.277 20.7111C171.01 20.8889 170.743 21.0667 170.565 21.3333C170.387 21.6 170.209 21.9556 170.12 22.4C170.031 22.8444 169.942 23.2889 169.942 23.8222C169.942 24.2667 170.031 24.7111 170.12 25.1556C170.209 25.6 170.387 25.9556 170.565 26.2222C170.743 26.4889 171.01 26.7556 171.366 26.9333C171.721 27.1111 172.077 27.2 172.433 27.2C172.7 27.2 172.967 27.1111 173.234 27.0222C173.501 26.9333 173.679 26.8444 173.768 26.7556V25.4222C173.768 25.2444 173.768 25.1556 173.679 25.0667C173.679 24.9778 173.59 24.8889 173.412 24.8C173.323 24.7111 173.145 24.7111 172.967 24.7111C172.789 24.7111 172.611 24.7111 172.522 24.6222V24.2667H175.725V24.5333H175.903V24.5333ZM183.911 20.5333C183.822 20.5333 183.644 20.5333 183.466 20.6222C183.288 20.7111 183.11 20.7111 183.021 20.8C182.932 20.8889 182.843 21.0667 182.754 21.2444C182.754 21.5111 182.665 21.7778 182.665 22.1333V27.3778H182.22L177.861 21.5111V25.2444C177.861 25.6889 177.861 25.9556 177.95 26.2222C178.039 26.4889 178.039 26.5778 178.217 26.6667C178.306 26.7556 178.484 26.8444 178.661 26.8444C178.839 26.8444 179.106 26.9333 179.106 26.9333V27.3778H176.17V27.0222C176.259 27.0222 176.437 27.0222 176.615 26.9333C176.793 26.8444 176.971 26.8444 177.06 26.7556C177.149 26.6667 177.238 26.4889 177.327 26.3111C177.416 26.1333 177.416 25.7778 177.416 25.3333V21.7778C177.416 21.6 177.416 21.5111 177.327 21.3333C177.238 21.1556 177.238 21.0667 177.149 20.9778C177.06 20.8889 176.882 20.8 176.615 20.7111C176.437 20.6222 176.259 20.6222 176.081 20.6222V20.2667H178.128L182.22 25.7778V22.3111C182.22 21.8667 182.22 21.6 182.132 21.3333C182.043 21.0667 182.043 20.9778 181.865 20.8889C181.776 20.8 181.598 20.8 181.42 20.7111C181.242 20.6222 181.064 20.6222 180.886 20.6222V20.2667H183.822V20.5333H183.911V20.5333Z" fill="#2B2B2B"/>
<path class="cls-1" d="M78.8317 35.1112H78.2089C78.1199 34.6667 77.853 34.2223 77.4971 33.6889C77.1412 33.1556 76.7853 32.8889 76.4294 32.8889C76.2514 32.8889 76.0735 32.8889 75.8065 32.8H73.0483V37.5112H74.383C74.8278 37.5112 75.0947 37.5112 75.3617 37.4223C75.6286 37.3334 75.8066 37.2445 75.9845 37.0667C76.0735 36.9778 76.1624 36.8 76.2514 36.5334C76.3404 36.2667 76.4294 36 76.4294 35.7334H77.0522V40.3556H76.4294C76.4294 40.0889 76.3404 39.8223 76.2514 39.5556C76.1624 39.2889 76.0735 39.0223 75.9845 38.8445C75.8066 38.6667 75.6286 38.4889 75.3617 38.4C75.0947 38.3112 74.8278 38.3112 74.4719 38.3112H73.1373V42.3112C73.1373 42.4889 73.1373 42.6667 73.2263 42.7556C73.3153 42.9334 73.4042 43.0223 73.5822 43.1112C73.6712 43.1112 73.8491 43.2 74.116 43.2889C74.383 43.3778 74.5609 43.3778 74.7389 43.3778V43.9112H69.6673V43.2889C69.8452 43.2889 70.0232 43.2889 70.2901 43.2C70.557 43.2 70.735 43.1112 70.824 43.1112C71.0019 43.0223 71.0909 42.9334 71.1799 42.7556C71.2688 42.5778 71.2688 42.4889 71.2688 42.2223V33.7778C71.2688 33.6 71.2688 33.4223 71.1799 33.3334C71.0909 33.1556 71.0019 33.0667 70.824 32.9778C70.646 32.8889 70.4681 32.8 70.2011 32.8C69.9342 32.7112 69.7563 32.7112 69.5783 32.7112V32.0889H78.7427L78.8317 35.1112V35.1112ZM89.3307 33.6C89.8646 34.1334 90.2205 34.7556 90.5764 35.5556C90.8433 36.3556 91.0213 37.1556 91.0213 38.0445C91.0213 38.9334 90.8433 39.8223 90.5764 40.5334C90.3095 41.2445 89.8646 41.9556 89.3307 42.4889C88.7969 43.0223 88.263 43.4667 87.5512 43.7334C86.8394 44 86.1276 44.1778 85.4158 44.1778C84.6151 44.1778 83.8143 44 83.1915 43.7334C82.4797 43.4667 81.9458 43.0223 81.412 42.4889C80.8781 41.9556 80.5222 41.3334 80.2553 40.5334C79.9884 39.7334 79.8104 38.9334 79.8104 38.0445C79.8104 37.0667 79.9884 36.2667 80.2553 35.4667C80.5222 34.7556 80.9671 34.0445 81.5009 33.5112C82.0348 32.9778 82.6576 32.5334 83.2804 32.2667C83.9922 32 84.704 31.8223 85.4158 31.8223C86.2166 31.8223 86.9284 32 87.6402 32.2667C88.263 32.6223 88.8859 33.0667 89.3307 33.6V33.6ZM88.0851 41.8667C88.352 41.3334 88.6189 40.8 88.7969 40.1778C88.9748 39.5556 88.9748 38.8445 88.9748 38.0445C88.9748 37.2445 88.8859 36.5334 88.7079 35.8223C88.53 35.1112 88.352 34.5778 87.9961 34.1334C87.7292 33.6889 87.2843 33.3334 86.8394 33.0667C86.3946 32.8 85.8607 32.7112 85.2379 32.7112C84.6151 32.7112 83.9922 32.8889 83.5474 33.1556C83.1025 33.4223 82.7466 33.8667 82.3907 34.4C82.1238 34.8445 81.9458 35.4667 81.7679 36.0889C81.5899 36.7112 81.5899 37.4223 81.5899 38.1334C81.5899 38.9334 81.6789 39.6445 81.7679 40.2667C81.9458 40.8889 82.1238 41.5112 82.4797 41.9556C82.7466 42.4 83.1915 42.8445 83.6363 43.1112C84.0812 43.3778 84.6151 43.5556 85.2379 43.5556C85.8607 43.5556 86.3946 43.3778 86.8394 43.1112C87.4623 42.7556 87.8182 42.4 88.0851 41.8667V41.8667ZM104.279 32.8C104.101 32.8 103.923 32.8 103.567 32.8889C103.211 32.9778 103.033 33.0667 102.855 33.1556C102.677 33.2445 102.499 33.5112 102.499 33.9556C102.499 34.4 102.41 34.8445 102.41 35.3778V40.4445C102.41 41.0667 102.232 41.6889 101.965 42.1334C101.698 42.5778 101.342 43.0223 100.897 43.2889C100.453 43.5556 100.008 43.8223 99.5628 43.9112C99.118 44 98.5841 44.0889 98.1392 44.0889C97.4274 44.0889 96.8046 44 96.2708 43.8223C95.7369 43.6445 95.292 43.3778 94.8472 43.1112C94.4913 42.7556 94.2243 42.4 94.0464 42.0445C93.8684 41.6 93.7795 41.2445 93.7795 40.8V33.8667C93.7795 33.6889 93.7795 33.5112 93.6905 33.4223C93.6015 33.3334 93.5125 33.1556 93.3346 33.0667C93.1566 32.9778 92.9787 32.8889 92.8008 32.8889C92.6228 32.8 92.4448 32.8 92.2669 32.8V32.1778H97.1605V32.8C96.9826 32.8 96.8046 32.8 96.5377 32.8889C96.2708 32.8889 96.0928 32.9778 96.0038 32.9778C95.8259 33.0667 95.6479 33.1556 95.6479 33.3334C95.559 33.5112 95.559 33.6889 95.559 33.8667V40.3556C95.559 40.7112 95.559 40.9778 95.6479 41.3334C95.7369 41.6889 95.8259 41.9556 96.0928 42.3112C96.2708 42.5778 96.6267 42.8445 96.9826 43.0223C97.3385 43.2 97.8723 43.2889 98.4951 43.2889C99.118 43.2889 99.6518 43.2 100.008 43.0223C100.453 42.8445 100.72 42.5778 100.986 42.2223C101.253 41.9556 101.342 41.6 101.431 41.3334C101.52 40.9778 101.609 40.7112 101.609 40.3556V35.5556C101.609 34.9334 101.609 34.4889 101.52 34.0445C101.431 33.6889 101.342 33.4223 101.164 33.2445C100.986 33.0667 100.72 32.9778 100.364 32.8889C100.008 32.8 99.7408 32.8 99.5628 32.8V32.1778H104.367L104.279 32.8V32.8ZM117.269 32.8C117.091 32.8 116.913 32.8889 116.557 32.8889C116.201 32.9778 116.023 33.0667 115.845 33.1556C115.667 33.3334 115.489 33.6 115.489 33.9556C115.4 34.3112 115.4 34.8445 115.4 35.4667V44H114.689L107.571 34.4V40.4445C107.571 41.1556 107.571 41.6 107.66 42.0445C107.749 42.4 107.838 42.6667 108.015 42.8445C108.104 42.9334 108.371 43.1112 108.816 43.2C109.172 43.2889 109.439 43.3778 109.617 43.3778V43.9112H104.812V43.2889C104.99 43.2889 105.168 43.2 105.524 43.1112C105.88 43.0223 106.058 42.9334 106.147 42.8445C106.325 42.6667 106.503 42.4889 106.503 42.1334C106.503 41.7778 106.592 41.2445 106.592 40.5334V34.7556C106.592 34.4889 106.592 34.2223 106.503 33.9556C106.414 33.6889 106.325 33.5112 106.147 33.3334C105.969 33.1556 105.702 32.9778 105.346 32.8889C104.99 32.8 104.723 32.7112 104.545 32.7112V32.0889H107.926L114.511 40.9778V35.3778C114.511 34.6667 114.511 34.1334 114.422 33.7778C114.333 33.4223 114.244 33.1556 114.066 33.0667C113.888 32.9778 113.621 32.8889 113.354 32.8C113.087 32.7112 112.731 32.6223 112.553 32.6223V32H117.358L117.269 32.8V32.8ZM129.458 38.1334C129.458 39.1112 129.28 40 128.925 40.7112C128.569 41.4223 128.035 42.0445 127.501 42.4889C126.878 42.9334 126.255 43.2889 125.455 43.5556C124.654 43.8223 123.942 43.9112 123.141 43.9112H118.248V43.2889C118.426 43.2889 118.603 43.2889 118.87 43.2C119.137 43.2 119.315 43.1112 119.404 43.1112C119.582 43.0223 119.671 42.9334 119.76 42.7556C119.849 42.5778 119.849 42.4889 119.849 42.2223V33.7778C119.849 33.6 119.849 33.4223 119.76 33.2445C119.671 33.0667 119.582 32.9778 119.404 32.8889C119.226 32.8 119.048 32.7112 118.87 32.7112C118.692 32.7112 118.514 32.6223 118.337 32.6223V32H123.497C124.209 32 124.921 32.0889 125.544 32.3556C126.255 32.5334 126.789 32.8889 127.323 33.2445C128.035 33.7778 128.569 34.4 128.925 35.2C129.28 36.0889 129.458 37.0667 129.458 38.1334V38.1334ZM127.412 38.1334C127.412 37.3334 127.323 36.6223 127.056 36C126.878 35.3778 126.522 34.8445 126.166 34.3112C125.81 33.8667 125.366 33.5112 124.743 33.2445C124.209 32.9778 123.586 32.8889 122.874 32.8889H121.451V41.8667C121.451 42.4 121.629 42.7556 121.896 42.9334C122.162 43.1112 122.607 43.2 123.23 43.2C123.942 43.2 124.565 43.1112 125.099 42.8445C125.632 42.5778 126.077 42.2223 126.344 41.7778C126.7 41.3334 126.967 40.8 127.056 40.1778C127.145 39.5556 127.412 38.9334 127.412 38.1334V38.1334ZM141.826 43.9112H136.932V43.2889C137.377 43.2889 137.733 43.2 138 43.1112C138.267 43.0223 138.445 42.9334 138.445 42.8445V42.6667C138.445 42.5778 138.445 42.4889 138.356 42.4889L137.377 39.9112H133.284C133.106 40.2667 133.017 40.6223 132.928 40.8889L132.661 41.6889C132.573 41.9556 132.573 42.1334 132.484 42.3112V42.6667C132.484 42.8445 132.661 43.0223 133.017 43.2C133.373 43.2889 133.729 43.3778 134.174 43.3778V43.9112H129.725V43.2889C129.903 43.2889 130.081 43.2889 130.259 43.2C130.437 43.1112 130.615 43.1112 130.793 43.0223C130.971 42.8445 131.149 42.7556 131.327 42.5778C131.416 42.4 131.594 42.2223 131.683 41.8667C132.306 40.3556 132.928 38.7556 133.64 36.8889C134.352 35.0223 134.975 33.4223 135.509 32H136.132L140.046 42.1334L140.313 42.6667C140.402 42.8445 140.58 42.9334 140.758 43.0223C140.847 43.1112 141.025 43.2 141.292 43.2C141.559 43.2 141.648 43.2889 141.826 43.2889V43.9112V43.9112ZM137.11 39.1112L135.331 34.5778L133.551 39.1112H137.11ZM151.791 35.3778H151.257C151.168 35.2 151.079 34.9334 150.99 34.6667C150.901 34.4 150.723 34.1334 150.545 33.8667C150.367 33.6 150.19 33.4223 150.012 33.2445C149.834 33.0667 149.656 32.9778 149.478 32.8889C149.3 32.8889 149.122 32.8889 148.855 32.8H147.698V42.1334C147.698 42.3112 147.698 42.4889 147.787 42.6667C147.876 42.8445 147.965 42.9334 148.232 43.0223C148.321 43.0223 148.499 43.1112 148.855 43.2C149.211 43.2889 149.389 43.2889 149.567 43.2889V43.9112H144.05V43.2889C144.228 43.2889 144.406 43.2889 144.762 43.2C145.118 43.1112 145.296 43.1112 145.385 43.1112C145.563 43.0223 145.741 42.9334 145.83 42.8445C145.919 42.7556 145.919 42.4889 145.919 42.3112V32.8889H144.851C144.584 32.8889 144.317 32.8889 144.139 32.9778C143.961 32.9778 143.783 33.0667 143.605 33.3334C143.427 33.5112 143.249 33.7778 143.072 33.9556C142.894 34.2223 142.805 34.4889 142.627 34.7556C142.449 35.0223 142.449 35.2889 142.36 35.4667H141.826V32.2667H152.058V35.3778H151.791V35.3778ZM157.841 43.9112H152.592V43.2889C152.77 43.2889 152.948 43.2889 153.215 43.2C153.482 43.2 153.66 43.1112 153.837 43.1112C154.015 43.0223 154.193 42.9334 154.193 42.8445C154.282 42.7556 154.282 42.5778 154.282 42.3112V33.8667C154.282 33.6889 154.282 33.5112 154.193 33.4223C154.104 33.3334 154.015 33.1556 153.749 33.0667C153.571 32.9778 153.393 32.9778 153.126 32.8889C152.859 32.8 152.681 32.8 152.503 32.8V32.1778H157.752V32.8C157.574 32.8 157.397 32.8 157.13 32.8889C156.863 32.8889 156.685 32.9778 156.507 33.0667C156.329 33.1556 156.151 33.2445 156.062 33.4223C155.973 33.6 155.973 33.7778 155.973 33.9556V42.4C155.973 42.5778 155.973 42.7556 156.062 42.8445C156.151 43.0223 156.24 43.1112 156.507 43.2C156.596 43.2 156.774 43.2889 157.041 43.3778C157.308 43.4667 157.485 43.4667 157.663 43.4667V43.9112H157.841ZM168.696 33.6C169.23 34.1334 169.586 34.7556 169.942 35.5556C170.209 36.3556 170.387 37.1556 170.387 38.0445C170.387 38.9334 170.209 39.8223 169.942 40.5334C169.675 41.2445 169.23 41.9556 168.696 42.4889C168.162 43.0223 167.629 43.4667 166.917 43.7334C166.205 44 165.493 44.1778 164.781 44.1778C163.981 44.1778 163.18 44 162.557 43.7334C161.845 43.4667 161.311 43.0223 160.778 42.4889C160.244 41.9556 159.888 41.3334 159.621 40.5334C159.354 39.7334 159.176 38.9334 159.176 38.0445C159.176 37.0667 159.354 36.2667 159.621 35.4667C159.888 34.7556 160.333 34.0445 160.867 33.5112C161.4 32.9778 162.023 32.5334 162.646 32.2667C163.358 32 164.07 31.8223 164.781 31.8223C165.582 31.8223 166.294 32 167.006 32.2667C167.718 32.5334 168.251 33.0667 168.696 33.6ZM167.54 41.8667C167.807 41.3334 168.073 40.8 168.251 40.1778C168.429 39.5556 168.429 38.8445 168.429 38.0445C168.429 37.2445 168.34 36.5334 168.162 35.8223C167.985 35.1112 167.807 34.5778 167.451 34.1334C167.184 33.6889 166.739 33.3334 166.294 33.0667C165.849 32.8 165.315 32.7112 164.692 32.7112C164.07 32.7112 163.447 32.8889 163.002 33.1556C162.557 33.4223 162.201 33.8667 161.845 34.4C161.578 34.8445 161.4 35.4667 161.222 36.0889C161.044 36.7112 161.044 37.4223 161.044 38.1334C161.044 38.9334 161.133 39.6445 161.222 40.2667C161.4 40.8889 161.578 41.5112 161.934 41.9556C162.201 42.4 162.646 42.8445 163.091 43.1112C163.536 43.3778 164.07 43.5556 164.692 43.5556C165.315 43.5556 165.849 43.3778 166.294 43.1112C166.828 42.7556 167.184 42.4 167.54 41.8667V41.8667ZM183.911 32.8C183.733 32.8 183.555 32.8889 183.199 32.8889C182.843 32.9778 182.665 33.0667 182.487 33.1556C182.309 33.3334 182.132 33.6 182.132 33.9556C182.043 34.3112 182.043 34.8445 182.043 35.4667V44H181.331L174.124 34.4889V40.5334C174.124 41.2445 174.124 41.6889 174.213 42.1334C174.302 42.4889 174.391 42.7556 174.569 42.9334C174.658 43.0223 174.925 43.2 175.369 43.2889C175.725 43.3778 175.992 43.4667 176.17 43.4667V43.9112H171.366V43.2889C171.544 43.2889 171.721 43.2 172.077 43.1112C172.433 43.0223 172.611 42.9334 172.7 42.8445C172.878 42.6667 173.056 42.4889 173.056 42.1334C173.056 41.7778 173.145 41.2445 173.145 40.5334V34.7556C173.145 34.4889 173.145 34.2223 173.056 33.9556C172.967 33.6889 172.878 33.5112 172.7 33.3334C172.522 33.1556 172.255 32.9778 171.899 32.8889C171.543 32.8 171.277 32.7112 171.099 32.7112V32.0889H174.48L181.064 40.9778V35.3778C181.064 34.6667 181.064 34.1334 180.975 33.7778C180.886 33.4223 180.797 33.1556 180.619 33.0667C180.441 32.9778 180.174 32.8889 179.907 32.8C179.64 32.7112 179.284 32.6223 179.106 32.6223V32H183.911V32.8V32.8Z" fill="#2B2B2B"/>
<path class="cls-1" d="M21.7775 51.6751L21.6904 53.0222H17.8942V52.7934C17.9586 52.7891 18.0445 52.7805 18.152 52.7676C18.2594 52.7526 18.3292 52.7375 18.3614 52.7225C18.4302 52.6903 18.4775 52.6484 18.5032 52.5968C18.5312 52.5453 18.5451 52.4797 18.5451 52.4002V49.1131C18.5451 49.0422 18.5333 48.9799 18.5097 48.9262C18.486 48.8704 18.4366 48.8252 18.3614 48.7909C18.3034 48.7629 18.225 48.7382 18.1262 48.7167C18.0295 48.6953 17.9522 48.6824 17.8942 48.6781V48.4493H21.4326V49.5514H21.1909C21.148 49.3881 21.0545 49.2152 20.9106 49.0326C20.7688 48.8478 20.6334 48.7468 20.5045 48.7296C20.4379 48.721 20.3584 48.7146 20.266 48.7103C20.1736 48.706 20.0684 48.7039 19.9502 48.7039H19.2316V50.5214H19.7472C19.9126 50.5214 20.0329 50.5064 20.1081 50.4763C20.1855 50.4441 20.2531 50.3915 20.3111 50.3184C20.3584 50.2561 20.3982 50.1734 20.4304 50.0703C20.4648 49.965 20.4873 49.8662 20.4981 49.7738H20.7398V51.5624H20.4981C20.4895 51.4592 20.4658 51.3507 20.4272 51.2369C20.3906 51.1208 20.352 51.0371 20.3111 50.9855C20.2445 50.9017 20.1683 50.8469 20.0823 50.8211C19.9985 50.7954 19.8868 50.7825 19.7472 50.7825H19.2316V52.1553C19.2316 52.2928 19.2412 52.4013 19.2606 52.4808C19.2799 52.5603 19.3175 52.6205 19.3734 52.6613C19.4292 52.7021 19.5055 52.729 19.6022 52.7418C19.6988 52.7526 19.8363 52.758 20.0147 52.758C20.0856 52.758 20.179 52.758 20.295 52.758C20.411 52.758 20.5088 52.7537 20.5883 52.7451C20.6699 52.7365 20.7537 52.7214 20.8397 52.7C20.9277 52.6763 20.9901 52.6452 21.0266 52.6065C21.1254 52.5034 21.2285 52.3476 21.3359 52.1392C21.4455 51.9287 21.5153 51.774 21.5454 51.6751H21.7775ZM24.2589 51.4657C24.347 51.543 24.4147 51.6322 24.4619 51.7332C24.5092 51.8341 24.5328 51.9577 24.5328 52.1038C24.5328 52.3981 24.4222 52.6387 24.2009 52.8256C23.9818 53.0125 23.6971 53.106 23.3469 53.106C23.1621 53.106 22.9913 53.0727 22.8345 53.0061C22.6798 52.9395 22.5692 52.8783 22.5026 52.8224L22.4381 53.0319H22.1964L22.1642 51.9265H22.3865C22.4037 52.0103 22.4402 52.1081 22.4961 52.2198C22.552 52.3315 22.6196 52.4325 22.6991 52.5227C22.7829 52.6172 22.8828 52.6967 22.9988 52.7612C23.117 52.8256 23.2491 52.8579 23.3952 52.8579C23.6015 52.8579 23.7605 52.8117 23.8722 52.7193C23.9839 52.6248 24.0398 52.4905 24.0398 52.3165C24.0398 52.2262 24.0215 52.1489 23.985 52.0844C23.9506 52.0178 23.899 51.9598 23.8303 51.9104C23.7594 51.861 23.6724 51.8169 23.5693 51.7783C23.4661 51.7375 23.3512 51.6977 23.2244 51.659C23.1234 51.629 23.0107 51.5881 22.886 51.5366C22.7636 51.4829 22.6583 51.4206 22.5702 51.3497C22.4757 51.2745 22.3984 51.1821 22.3382 51.0725C22.278 50.9629 22.248 50.834 22.248 50.6858C22.248 50.4258 22.3446 50.2056 22.538 50.0251C22.7314 49.8447 22.9902 49.7544 23.3147 49.7544C23.4393 49.7544 23.566 49.7706 23.6949 49.8028C23.826 49.835 23.9323 49.8737 24.014 49.9188L24.0881 49.7512H24.3201L24.3685 50.7728H24.1461C24.101 50.5451 24.0032 50.3603 23.8528 50.2185C23.7046 50.0746 23.5231 50.0026 23.3082 50.0026C23.132 50.0026 22.9935 50.0466 22.8925 50.1347C22.7915 50.2228 22.741 50.3292 22.741 50.4538C22.741 50.5504 22.7571 50.631 22.7894 50.6955C22.8237 50.7599 22.8742 50.8147 22.9408 50.8598C23.0053 50.9028 23.0859 50.9436 23.1825 50.9823C23.2814 51.0188 23.4027 51.0607 23.5467 51.108C23.6885 51.1531 23.8217 51.2057 23.9463 51.2659C24.0731 51.326 24.1773 51.3926 24.2589 51.4657ZM26.9788 52.8836C26.8392 52.9417 26.707 52.99 26.5824 53.0287C26.4578 53.0695 26.3053 53.0899 26.1248 53.0899C25.8584 53.0899 25.6704 53.0233 25.5609 52.8901C25.4534 52.7547 25.3997 52.5646 25.3997 52.3197V50.1669H24.8261V49.8576H25.4126V48.8682H25.9991V49.8576H26.9111V50.1669H26.0056V51.9426C26.0056 52.0758 26.0099 52.1875 26.0185 52.2778C26.0292 52.3659 26.0528 52.4432 26.0894 52.5098C26.1237 52.5721 26.1753 52.6194 26.2441 52.6516C26.3128 52.6838 26.4052 52.7 26.5212 52.7C26.5749 52.7 26.6533 52.6957 26.7565 52.6871C26.8617 52.6763 26.9359 52.6634 26.9788 52.6484V52.8836ZM28.4032 52.6516C28.4032 52.7719 28.3592 52.875 28.2711 52.961C28.1852 53.0448 28.082 53.0867 27.9617 53.0867C27.8414 53.0867 27.7372 53.0448 27.6491 52.961C27.5632 52.875 27.5202 52.7719 27.5202 52.6516C27.5202 52.5313 27.5632 52.4282 27.6491 52.3422C27.7372 52.2542 27.8414 52.2101 27.9617 52.2101C28.082 52.2101 28.1852 52.2542 28.2711 52.3422C28.3592 52.4282 28.4032 52.5313 28.4032 52.6516ZM20.9911 60.0222H17.9715V59.5839C18.0295 59.5173 18.1101 59.4432 18.2132 59.3616C18.3163 59.2778 18.4388 59.1875 18.5806 59.0909C18.6665 59.0329 18.7696 58.9695 18.89 58.9007C19.0103 58.832 19.1467 58.7568 19.2992 58.6751C19.469 58.5849 19.5989 58.5054 19.6892 58.4367C19.7816 58.3679 19.8653 58.2831 19.9405 58.1821C19.99 58.1155 20.0297 58.0328 20.0598 57.9339C20.0899 57.833 20.1049 57.6901 20.1049 57.5053C20.1049 57.2368 20.0329 57.0402 19.889 56.9156C19.745 56.7888 19.5603 56.7254 19.3347 56.7254C19.195 56.7254 19.0629 56.7534 18.9383 56.8092C18.8137 56.8629 18.7202 56.9381 18.6579 57.0348C18.673 57.1036 18.6912 57.1852 18.7127 57.2797C18.7363 57.3743 18.7482 57.4667 18.7482 57.5569C18.7482 57.6385 18.7138 57.7116 18.645 57.776C18.5784 57.8383 18.4785 57.8695 18.3453 57.8695C18.2379 57.8695 18.1552 57.833 18.0972 57.7599C18.0392 57.6847 18.0102 57.5848 18.0102 57.4602C18.0102 57.3442 18.0424 57.2282 18.1068 57.1122C18.1713 56.994 18.2637 56.8855 18.384 56.7867C18.5022 56.69 18.6483 56.6116 18.8223 56.5514C18.9963 56.4913 19.1843 56.4612 19.3862 56.4612C19.8267 56.4612 20.1758 56.56 20.4336 56.7577C20.6936 56.9532 20.8235 57.2153 20.8235 57.544C20.8235 57.7008 20.7999 57.8437 20.7526 57.9726C20.7075 58.1015 20.6334 58.2154 20.5303 58.3142C20.4164 58.4238 20.2832 58.5183 20.1307 58.5978C19.9781 58.6751 19.745 58.7836 19.4314 58.9233C19.2444 59.0071 19.0704 59.0952 18.9093 59.1875C18.7482 59.2778 18.616 59.3659 18.5129 59.4518H20.9911V60.0222ZM24.6134 57.0123C24.7509 57.1777 24.8529 57.3721 24.9195 57.5956C24.9883 57.8168 25.0227 58.0489 25.0227 58.2917C25.0227 58.5838 24.9808 58.8459 24.897 59.078C24.8132 59.3079 24.6983 59.4991 24.5522 59.6516C24.4018 59.8084 24.2234 59.9266 24.0172 60.0061C23.8109 60.0856 23.5811 60.1253 23.3276 60.1253C23.0504 60.1253 22.8033 60.0792 22.5863 59.9868C22.3693 59.8944 22.1932 59.7676 22.0578 59.6065C21.916 59.4389 21.8097 59.2434 21.7388 59.02C21.67 58.7944 21.6357 58.5516 21.6357 58.2917C21.6357 58.036 21.669 57.8007 21.7356 57.5859C21.8043 57.371 21.9107 57.1766 22.0546 57.0026C22.1921 56.835 22.3693 56.7029 22.5863 56.6062C22.8033 56.5095 23.0515 56.4612 23.3308 56.4612C23.6251 56.4612 23.8776 56.5106 24.0881 56.6094C24.2986 56.7083 24.4737 56.8425 24.6134 57.0123ZM24.3105 58.2917C24.3105 57.7803 24.2224 57.3839 24.0462 57.1025C23.8722 56.821 23.6348 56.6803 23.334 56.6803C23.0289 56.6803 22.7883 56.821 22.6121 57.1025C22.4359 57.3839 22.3479 57.7803 22.3479 58.2917C22.3479 58.7772 22.4317 59.1682 22.5992 59.4647C22.769 59.759 23.0117 59.9062 23.3276 59.9062C23.6434 59.9062 23.8861 59.759 24.0559 59.4647C24.2256 59.1682 24.3105 58.7772 24.3105 58.2917ZM28.6675 57.0123C28.805 57.1777 28.907 57.3721 28.9736 57.5956C29.0424 57.8168 29.0768 58.0489 29.0768 58.2917C29.0768 58.5838 29.0349 58.8459 28.9511 59.078C28.8673 59.3079 28.7524 59.4991 28.6063 59.6516C28.4559 59.8084 28.2776 59.9266 28.0713 60.0061C27.8651 60.0856 27.6352 60.1253 27.3817 60.1253C27.1045 60.1253 26.8574 60.0792 26.6404 59.9868C26.4234 59.8944 26.2473 59.7676 26.1119 59.6065C25.9701 59.4389 25.8638 59.2434 25.7929 59.02C25.7241 58.7944 25.6898 58.5516 25.6898 58.2917C25.6898 58.036 25.7231 57.8007 25.7897 57.5859C25.8584 57.371 25.9648 57.1766 26.1087 57.0026C26.2462 56.835 26.4234 56.7029 26.6404 56.6062C26.8574 56.5095 27.1056 56.4612 27.3849 56.4612C27.6792 56.4612 27.9317 56.5106 28.1422 56.6094C28.3527 56.7083 28.5278 56.8425 28.6675 57.0123ZM28.3646 58.2917C28.3646 57.7803 28.2765 57.3839 28.1003 57.1025C27.9263 56.821 27.6889 56.6803 27.3881 56.6803C27.083 56.6803 26.8424 56.821 26.6662 57.1025C26.4901 57.3839 26.402 57.7803 26.402 58.2917C26.402 58.7772 26.4858 59.1682 26.6533 59.4647C26.8231 59.759 27.0658 59.9062 27.3817 59.9062C27.6975 59.9062 27.9402 59.759 28.11 59.4647C28.2797 59.1682 28.3646 58.7772 28.3646 58.2917ZM32.786 60.0222H29.7664V59.5839C29.8244 59.5173 29.905 59.4432 30.0081 59.3616C30.1112 59.2778 30.2337 59.1875 30.3755 59.0909C30.4614 59.0329 30.5646 58.9695 30.6849 58.9007C30.8052 58.832 30.9416 58.7568 31.0942 58.6751C31.2639 58.5849 31.3939 58.5054 31.4841 58.4367C31.5765 58.3679 31.6603 58.2831 31.7355 58.1821C31.7849 58.1155 31.8246 58.0328 31.8547 57.9339C31.8848 57.833 31.8998 57.6901 31.8998 57.5053C31.8998 57.2368 31.8278 57.0402 31.6839 56.9156C31.54 56.7888 31.3552 56.7254 31.1296 56.7254C30.99 56.7254 30.8578 56.7534 30.7332 56.8092C30.6086 56.8629 30.5151 56.9381 30.4528 57.0348C30.4679 57.1036 30.4861 57.1852 30.5076 57.2797C30.5313 57.3743 30.5431 57.4667 30.5431 57.5569C30.5431 57.6385 30.5087 57.7116 30.44 57.776C30.3734 57.8383 30.2734 57.8695 30.1402 57.8695C30.0328 57.8695 29.9501 57.833 29.8921 57.7599C29.8341 57.6847 29.8051 57.5848 29.8051 57.4602C29.8051 57.3442 29.8373 57.2282 29.9018 57.1122C29.9662 56.994 30.0586 56.8855 30.1789 56.7867C30.2971 56.69 30.4432 56.6116 30.6172 56.5514C30.7912 56.4913 30.9792 56.4612 31.1812 56.4612C31.6216 56.4612 31.9707 56.56 32.2285 56.7577C32.4885 56.9532 32.6185 57.2153 32.6185 57.544C32.6185 57.7008 32.5948 57.8437 32.5476 57.9726C32.5025 58.1015 32.4283 58.2154 32.3252 58.3142C32.2113 58.4238 32.0781 58.5183 31.9256 58.5978C31.7731 58.6751 31.54 58.7836 31.2263 58.9233C31.0394 59.0071 30.8653 59.0952 30.7042 59.1875C30.5431 59.2778 30.4109 59.3659 30.3078 59.4518H32.786V60.0222Z" fill="#2B2B2B"/>
<path class="cls-1" d="M6.11488 29.5985L6.1362 30.7077L6.01284 30.71C6.00992 30.6788 6.00558 30.6338 5.99981 30.5748C5.99405 30.5159 5.9863 30.4744 5.97656 30.4503C5.96077 30.4124 5.93997 30.385 5.91415 30.3681C5.88717 30.3513 5.85052 30.3433 5.80419 30.3442L4.01807 30.3784C3.97753 30.3792 3.94406 30.3862 3.91766 30.3995C3.89011 30.4127 3.86752 30.4433 3.8499 30.4911C3.83667 30.526 3.82477 30.5703 3.81421 30.6237C3.80247 30.676 3.79576 30.719 3.79409 30.7526L3.67073 30.755L3.64941 29.6458L3.77277 29.6434C3.77462 29.6793 3.78008 29.722 3.78914 29.7716C3.79705 29.8212 3.80715 29.8644 3.81944 29.9013C3.83419 29.945 3.85734 29.974 3.88891 29.9885C3.92047 30.0029 3.95536 30.0098 3.99359 30.009L5.77797 29.9748C5.81619 29.9741 5.85021 29.9653 5.88001 29.9485C5.90864 29.9306 5.93125 29.9013 5.94785 29.8604C5.95664 29.8359 5.96631 29.7964 5.97685 29.7418C5.98621 29.686 5.9911 29.6391 5.99152 29.6009L6.11488 29.5985Z" fill="#2B2B2B"/>
<path class="cls-1" d="M4.07616 26.0597C4.07409 26.092 4.07837 26.1425 4.08899 26.211C4.09961 26.2795 4.1127 26.3291 4.12827 26.3597C4.15295 26.4041 4.20547 26.4378 4.28583 26.4609C4.3663 26.4829 4.46937 26.5002 4.59503 26.5127L6.39176 26.6918L6.37674 26.8421L4.22063 28.1277L5.48646 28.2539C5.62827 28.2681 5.73807 28.2703 5.81589 28.2606C5.89382 28.2498 5.95076 28.2275 5.98673 28.1939C6.01473 28.1699 6.04383 28.1176 6.07402 28.0368C6.10421 27.9561 6.1212 27.9025 6.125 27.8761L6.24778 27.8884L6.14734 28.8939L6.02456 28.8816C6.02536 28.8503 6.01965 28.7968 6.00741 28.7211C5.99402 28.6454 5.98018 28.5974 5.96588 28.5774C5.93763 28.5339 5.89139 28.5014 5.82717 28.4798C5.7618 28.4582 5.64899 28.4394 5.48875 28.4234L4.27998 28.3029C4.22694 28.2976 4.17299 28.3015 4.11812 28.3147C4.06325 28.3278 4.01985 28.3485 3.98792 28.3767C3.94573 28.4144 3.90782 28.4676 3.87417 28.5364C3.83948 28.6039 3.8188 28.6594 3.81212 28.7029L3.68934 28.6907L3.75923 27.991L5.76804 26.7989L4.60077 26.6825C4.45782 26.6683 4.34737 26.6666 4.26944 26.6774C4.19036 26.6881 4.13641 26.7095 4.1076 26.7415C4.08247 26.7716 4.05585 26.8225 4.02774 26.8941C3.99974 26.9646 3.98269 27.0187 3.97659 27.0565L3.85381 27.0443L3.95338 26.0474L4.07616 26.0597Z" fill="#2B2B2B"/>
<path class="cls-1" d="M5.21608 23.3557L5.18992 23.4726C5.14695 23.4737 5.09472 23.4816 5.03326 23.4963C4.97092 23.5097 4.91121 23.5272 4.85413 23.5488C4.79454 23.5711 4.74098 23.5983 4.69344 23.6304C4.64502 23.6611 4.61382 23.6944 4.59983 23.7304C4.58747 23.7644 4.57422 23.8077 4.56009 23.8603C4.54595 23.9129 4.53383 23.9618 4.52372 24.007L4.50174 24.1052L6.42664 24.535C6.46395 24.5433 6.5002 24.5431 6.5354 24.5344C6.56946 24.5254 6.5994 24.503 6.6252 24.4673C6.63766 24.4487 6.65788 24.4087 6.68585 24.3474C6.71408 24.2849 6.7328 24.2357 6.74201 24.1998L6.86242 24.2267L6.60848 25.3619L6.48806 25.335C6.49288 25.3029 6.49909 25.2539 6.50671 25.188C6.51459 25.1209 6.51621 25.0739 6.5116 25.0467C6.50524 25.0062 6.49038 24.9744 6.46704 24.9514C6.44282 24.927 6.40753 24.9097 6.36117 24.8993L4.421 24.4661L4.39902 24.5644C4.39119 24.5994 4.38259 24.6431 4.37323 24.6956C4.36273 24.7478 4.35501 24.7983 4.35005 24.847C4.34623 24.8853 4.36013 24.9293 4.39173 24.979C4.42246 25.0274 4.45947 25.0742 4.50277 25.1195C4.54607 25.1647 4.59364 25.2067 4.64549 25.2456C4.69621 25.2842 4.73909 25.3128 4.77413 25.3313L4.7476 25.4499L4.09466 25.3041L4.56313 23.2099L5.21608 23.3557Z" fill="#2B2B2B"/>
<path class="cls-1" d="M7.15306 20.9284L7.82037 21.2119L7.14497 23.1343L7.02899 23.0936C7.03828 23.0602 7.04921 23.0152 7.06179 22.9585C7.07328 22.9014 7.07808 22.8634 7.07619 22.8444C7.07208 22.8038 7.05926 22.7725 7.03771 22.7502C7.01654 22.7269 6.98581 22.7082 6.94552 22.6941L5.27936 22.1098C5.24343 22.0972 5.20974 22.0921 5.17832 22.0946C5.1458 22.0966 5.11414 22.1136 5.08333 22.1456C5.05886 22.17 5.03238 22.2053 5.00391 22.2515C4.97582 22.2967 4.95553 22.3335 4.94303 22.3622L4.82705 22.3215L5.45659 20.5297L6.01524 20.7256L5.97224 20.8479C5.88183 20.8407 5.77754 20.8573 5.65937 20.8977C5.54049 20.9367 5.46522 20.9873 5.43358 21.0495C5.41737 21.0817 5.39996 21.1208 5.38135 21.1668C5.36273 21.2128 5.34292 21.2657 5.32189 21.3256L5.19404 21.6895L6.11532 22.0126L6.20706 21.7514C6.23649 21.6677 6.25027 21.6041 6.2484 21.5607C6.24583 21.5158 6.23119 21.4721 6.20448 21.4298C6.18131 21.3948 6.14646 21.3599 6.09992 21.3253C6.05268 21.2892 6.0066 21.2602 5.96168 21.2383L6.00468 21.1159L6.91127 21.4338L6.86826 21.5562C6.81446 21.5423 6.75527 21.5349 6.69067 21.5343C6.62536 21.5322 6.57601 21.5368 6.54262 21.5483C6.4883 21.5672 6.44696 21.5961 6.4186 21.635C6.39063 21.6728 6.36422 21.7271 6.33937 21.7978L6.24763 22.059L6.9435 22.303C7.01319 22.3274 7.06991 22.3418 7.11364 22.3461C7.15737 22.3505 7.19455 22.3421 7.22518 22.3211C7.25581 22.3001 7.28299 22.2662 7.30673 22.2195C7.32937 22.1725 7.35656 22.1038 7.38828 22.0135C7.4009 21.9776 7.41753 21.9303 7.43817 21.8715C7.45881 21.8128 7.47402 21.7625 7.48381 21.7208C7.49398 21.6779 7.50126 21.6328 7.50566 21.5854C7.50935 21.5366 7.50465 21.4996 7.49154 21.4742C7.45685 21.4058 7.39625 21.3259 7.30973 21.2345C7.2225 21.1416 7.15652 21.0787 7.11178 21.0459L7.15306 20.9284Z" fill="#2B2B2B"/>
<path class="cls-1" d="M9.13393 18.3411L8.84185 18.938C8.56962 18.969 8.33166 19.0012 8.12796 19.0346C7.92478 19.067 7.71232 19.1065 7.49058 19.1531L7.37971 19.3797L8.08352 19.7234C8.12001 19.7412 8.15514 19.7513 8.1889 19.7536C8.22161 19.7554 8.25445 19.7411 8.28739 19.7107C8.30387 19.6955 8.3267 19.666 8.3559 19.6222C8.38509 19.5784 8.40811 19.5406 8.42496 19.5088L8.536 19.563L8.07723 20.5005L7.96619 20.4463C7.97634 20.4203 7.99027 20.3825 8.008 20.3331C8.02623 20.2827 8.03577 20.246 8.0366 20.2232C8.03834 20.1853 8.02949 20.1533 8.01005 20.127C7.99112 20.0997 7.96132 20.0761 7.92065 20.0562L6.31597 19.2725C6.27948 19.2547 6.2446 19.2441 6.21135 19.2407C6.1781 19.2374 6.14475 19.2514 6.11129 19.2829C6.08916 19.3043 6.06426 19.3341 6.03657 19.3722C6.00784 19.4098 5.98529 19.4427 5.96893 19.4708L5.85789 19.4166L6.35871 18.3931C6.40459 18.2994 6.45757 18.2162 6.51765 18.1436C6.57669 18.0705 6.64389 18.011 6.71926 17.9652C6.79258 17.921 6.87255 17.8962 6.95918 17.8907C7.04478 17.8848 7.13501 17.905 7.2299 17.9513C7.3154 17.9931 7.38462 18.043 7.43757 18.1011C7.49051 18.1593 7.52848 18.2256 7.55146 18.3C7.57336 18.3688 7.58493 18.4442 7.58618 18.5261C7.58639 18.6075 7.5786 18.6934 7.5628 18.7837C7.76125 18.7452 7.92759 18.7141 8.06182 18.6906C8.19656 18.6661 8.36057 18.6358 8.55386 18.5999C8.63885 18.5846 8.70538 18.5661 8.75346 18.5444C8.80101 18.5212 8.84308 18.4959 8.87969 18.4686C8.9065 18.4482 8.93349 18.4194 8.96067 18.3823C8.98785 18.3453 9.00859 18.3135 9.02289 18.2869L9.13393 18.3411ZM7.07701 18.3548C6.9425 18.2891 6.81729 18.2757 6.70137 18.3146C6.5844 18.353 6.49151 18.4425 6.4227 18.5831L6.29271 18.8488L7.2452 19.314L7.34537 19.1093C7.41571 18.9655 7.42845 18.8233 7.38359 18.6827C7.33769 18.5415 7.2355 18.4322 7.07701 18.3548Z" fill="#2B2B2B"/>
<path class="cls-1" d="M10.6845 15.9738L10.1266 16.8353L10.023 16.7683C10.0672 16.6894 10.0981 16.6204 10.1156 16.5614C10.1337 16.5015 10.1321 16.4646 10.1107 16.4508C10.1019 16.4451 10.0906 16.4392 10.0767 16.4329C10.0628 16.4267 10.0497 16.4224 10.0375 16.42L9.4621 16.2921L8.99294 17.0165C9.04341 17.0878 9.08827 17.1485 9.12752 17.1986C9.1674 17.2479 9.20434 17.2931 9.23833 17.3344C9.27197 17.374 9.30035 17.4048 9.32347 17.4266C9.34659 17.4484 9.36641 17.4647 9.38295 17.4754C9.42186 17.5005 9.47183 17.4894 9.53288 17.442C9.59393 17.3946 9.65125 17.3338 9.70486 17.2596L9.80845 17.3265L9.30437 18.1049L9.20078 18.038C9.21519 18.0114 9.2303 17.9764 9.24609 17.9328C9.2609 17.8886 9.26839 17.8494 9.26856 17.815C9.26747 17.7592 9.25975 17.7114 9.24538 17.6718C9.23005 17.6316 9.2037 17.5849 9.16633 17.5318C8.97396 17.26 8.75641 16.9567 8.51368 16.622C8.27095 16.2873 8.05492 15.9891 7.86558 15.7275L7.9411 15.6109L10.1735 16.0757C10.2208 16.0857 10.2622 16.089 10.2975 16.0856C10.3328 16.0822 10.3723 16.0712 10.4161 16.0526C10.4442 16.0391 10.4747 16.0175 10.5077 15.9878C10.5398 15.9575 10.5642 15.9305 10.5809 15.9069L10.6845 15.9738ZM9.29826 16.2606L8.29283 16.0553L8.89612 16.8816L9.29826 16.2606Z" fill="#2B2B2B"/>
<path class="cls-1" d="M11.7177 14.767C11.6235 14.8802 11.5108 14.9704 11.3794 15.0376C11.2488 15.104 11.1082 15.1424 10.9576 15.153C10.8078 15.1627 10.653 15.1412 10.4933 15.0884C10.3327 15.0349 10.1766 14.9452 10.0249 14.8192C9.87326 14.6933 9.75517 14.5561 9.67063 14.4075C9.58519 14.2582 9.53198 14.1055 9.51099 13.9494C9.49016 13.795 9.50162 13.6425 9.5454 13.492C9.58917 13.3415 9.66333 13.2035 9.76788 13.0778C9.84573 12.9842 9.92777 12.9092 10.014 12.8527C10.1002 12.7962 10.1928 12.7511 10.2918 12.7173L10.2464 12.5869L10.3354 12.48L11.0225 13.0302L10.9313 13.1398C10.8534 13.0992 10.7642 13.0614 10.6638 13.0262C10.5625 12.9902 10.4691 12.9692 10.3837 12.9631C10.2875 12.9555 10.1979 12.967 10.1151 12.9977C10.0314 13.0276 9.95798 13.0805 9.89495 13.1562C9.82303 13.2427 9.77511 13.3392 9.75118 13.4459C9.728 13.5518 9.73126 13.663 9.76096 13.7795C9.7902 13.8912 9.84835 14.0081 9.93538 14.1301C10.0224 14.2521 10.1346 14.3701 10.272 14.4842C10.3933 14.5849 10.5174 14.6624 10.6443 14.7165C10.7711 14.769 10.8965 14.7986 11.0207 14.8053C11.144 14.8112 11.2593 14.7932 11.3666 14.7512C11.4747 14.7084 11.5687 14.6388 11.6488 14.5426C11.7089 14.4704 11.753 14.3947 11.7811 14.3156C11.8083 14.2358 11.8217 14.158 11.8213 14.0823C11.8191 14.0052 11.8072 13.9289 11.7854 13.8536C11.7636 13.7782 11.7322 13.7054 11.6911 13.6351L11.8227 13.5749C11.9471 13.8078 11.9973 14.0213 11.9732 14.2152C11.9482 14.4084 11.863 14.5924 11.7177 14.767Z" fill="#2B2B2B"/>
<path class="cls-1" d="M12.9203 10.7585L12.8336 10.8428C12.7967 10.82 12.7482 10.7978 12.6882 10.7763C12.6281 10.7532 12.568 10.735 12.5079 10.7217C12.4452 10.7076 12.385 10.701 12.3271 10.7018C12.2692 10.701 12.2244 10.712 12.1927 10.7347C12.1634 10.7565 12.1283 10.7858 12.0872 10.8224C12.0462 10.859 12.0089 10.8936 11.9754 10.9261L11.9025 10.997L13.29 12.4228C13.3169 12.4504 13.3476 12.4703 13.3822 12.4823C13.4159 12.4935 13.4536 12.4912 13.4952 12.4752C13.516 12.4664 13.5551 12.4439 13.6127 12.4075C13.6711 12.3703 13.7141 12.3391 13.7418 12.3139L13.8286 12.4031L12.9861 13.2214L12.8993 13.1322C12.9211 13.1077 12.9535 13.0698 12.9964 13.0183C13.0401 12.9661 13.0675 12.9272 13.0786 12.9018C13.0957 12.864 13.1007 12.829 13.0938 12.7967C13.0868 12.7627 13.0666 12.7286 13.0332 12.6942L11.6346 11.2571L11.5617 11.3279C11.5357 11.3532 11.5042 11.3854 11.4673 11.4245C11.4296 11.4628 11.3951 11.5011 11.364 11.5395C11.3396 11.5697 11.327 11.6146 11.3261 11.674C11.3253 11.7318 11.3307 11.7918 11.3422 11.8539C11.3537 11.916 11.3706 11.9778 11.3929 12.0392C11.4144 12.0999 11.4348 12.1476 11.4541 12.1826L11.3661 12.2681L10.8955 11.7844L12.4497 10.2749L12.9203 10.7585Z" fill="#2B2B2B"/>
<path class="cls-1" d="M15.5676 11.0331L14.7036 11.7192L14.6273 11.6233C14.6502 11.6022 14.6832 11.5715 14.7263 11.5314C14.7694 11.4913 14.7976 11.4602 14.8108 11.4379C14.8312 11.4026 14.8403 11.3697 14.8381 11.3391C14.8351 11.3077 14.8193 11.2739 14.7907 11.2379L13.6859 9.84937C13.6608 9.81785 13.6351 9.79567 13.6087 9.78283C13.5816 9.76909 13.5438 9.76969 13.4954 9.78463C13.4598 9.7953 13.4176 9.81259 13.369 9.83651C13.3206 9.85881 13.2826 9.87944 13.255 9.8984L13.1787 9.8025L14.0427 9.11646L14.119 9.21236C14.0917 9.23545 14.0612 9.26553 14.0275 9.30261C13.993 9.33879 13.965 9.37284 13.9433 9.40474C13.9176 9.44275 13.9086 9.47856 13.9162 9.51218C13.9239 9.5458 13.9395 9.57746 13.9632 9.60718L15.0668 10.9944C15.0905 11.0241 15.1179 11.0457 15.1492 11.059C15.1806 11.0708 15.2174 11.0709 15.2597 11.0594C15.2844 11.0516 15.3215 11.0353 15.371 11.0107C15.4207 10.9844 15.4608 10.96 15.4913 10.9372L15.5676 11.0331Z" fill="#2B2B2B"/>
<path class="cls-1" d="M16.6541 7.67001C16.8071 7.70643 16.9531 7.77564 17.0919 7.87765C17.2301 7.97869 17.3519 8.11093 17.4574 8.27438C17.5634 8.43881 17.6335 8.60508 17.6675 8.7732C17.7015 8.94131 17.7022 9.10265 17.6695 9.2572C17.6392 9.40891 17.5805 9.54861 17.4933 9.67631C17.4062 9.80401 17.2949 9.91143 17.1595 9.99858C17.0154 10.0914 16.8647 10.1505 16.7075 10.176C16.5506 10.1998 16.3973 10.1918 16.2475 10.1519C16.099 10.114 15.9561 10.0442 15.8189 9.94252C15.682 9.83926 15.564 9.71076 15.4648 9.55704C15.3563 9.38873 15.2859 9.22197 15.2538 9.05677C15.2211 8.8906 15.2199 8.72958 15.2503 8.5737C15.2803 8.41943 15.3394 8.27812 15.4275 8.1498C15.5166 8.02084 15.6274 7.91373 15.7599 7.82847C15.8972 7.74008 16.0433 7.68248 16.1983 7.65568C16.3533 7.62888 16.5052 7.63366 16.6541 7.67001ZM17.3834 9.27827C17.3808 9.15462 17.3556 9.02902 17.3078 8.90146C17.2609 8.77328 17.193 8.64011 17.1039 8.50195C17.0122 8.35991 16.914 8.23863 16.8092 8.13811C16.7054 8.03697 16.5997 7.9618 16.4922 7.91261C16.3853 7.86439 16.2767 7.84343 16.1664 7.84974C16.0554 7.85507 15.9478 7.89128 15.8436 7.95836C15.7268 8.03359 15.6447 8.12429 15.5974 8.23046C15.5501 8.33663 15.5295 8.45108 15.5356 8.57382C15.5422 8.69078 15.5703 8.8145 15.62 8.94498C15.6707 9.07483 15.7368 9.20299 15.8184 9.32947C15.9087 9.46957 16.003 9.5879 16.1011 9.68446C16.1992 9.78102 16.3037 9.85553 16.4148 9.90799C16.5226 9.95975 16.6321 9.98425 16.7433 9.98149C16.8539 9.97776 16.9647 9.94016 17.0758 9.86869C17.18 9.80161 17.2583 9.71679 17.3106 9.61423C17.363 9.51167 17.3873 9.39968 17.3834 9.27827Z" fill="#2B2B2B"/>
<path class="cls-1" d="M20.0351 5.70811C20.0062 5.72301 19.9652 5.75265 19.9118 5.79704C19.8585 5.84143 19.8227 5.87818 19.8045 5.90729C19.7791 5.95125 19.7772 6.0136 19.7988 6.09433C19.8214 6.17456 19.8596 6.2717 19.9136 6.38576L20.6853 8.01657L20.5486 8.08113L18.3352 6.89696L18.8788 8.0459C18.9397 8.17461 18.9944 8.26979 19.0428 8.33143C19.0922 8.39258 19.1406 8.42988 19.188 8.44335C19.223 8.455 19.2829 8.45295 19.3677 8.43722C19.4525 8.42148 19.5072 8.40845 19.5318 8.39812L19.5846 8.50956L18.6702 8.94141L18.6174 8.82997C18.6447 8.81452 18.6877 8.78207 18.7463 8.73262C18.8044 8.68213 18.8384 8.6456 18.8482 8.62303C18.871 8.57642 18.8751 8.52008 18.8605 8.454C18.8454 8.38688 18.8034 8.28059 18.7346 8.13514L18.2154 7.03799C18.1927 6.98986 18.1615 6.94568 18.122 6.90546C18.0824 6.86524 18.0423 6.83873 18.0017 6.82593C17.9476 6.8092 17.8824 6.80414 17.8061 6.81075C17.7303 6.81581 17.6721 6.82669 17.6313 6.8434L17.5785 6.73195L18.2148 6.43144L20.2722 7.53762L19.7709 6.47814C19.7095 6.34839 19.6541 6.25294 19.6046 6.19179C19.5547 6.12959 19.5086 6.09441 19.4662 6.08623C19.4275 6.0802 19.3702 6.08359 19.2942 6.09642C19.2193 6.10875 19.1641 6.12203 19.1285 6.13626L19.0758 6.02482L19.9823 5.59667L20.0351 5.70811Z" fill="#2B2B2B"/>
<path class="cls-1" d="M24.8546 5.41591C24.907 5.61912 24.9143 5.80523 24.8764 5.97424C24.8385 6.14324 24.7706 6.29123 24.6727 6.4182C24.5737 6.54547 24.4533 6.6525 24.3115 6.7393C24.1697 6.8261 24.0168 6.89062 23.8527 6.93287L22.8615 7.1881L22.8306 7.06853C22.8632 7.06014 22.9047 7.04648 22.9549 7.02756C23.006 7.00722 23.0389 6.99095 23.0538 6.97875C23.0837 6.95547 23.1024 6.92792 23.1097 6.89609C23.1179 6.86285 23.1168 6.82602 23.1064 6.7856L22.6615 5.06107C22.6516 5.0229 22.6361 4.99039 22.6148 4.96355C22.5946 4.93642 22.5631 4.91879 22.5202 4.91066C22.481 4.90279 22.4402 4.90014 22.3977 4.9027C22.3552 4.90525 22.3191 4.90917 22.2893 4.91445L22.2584 4.79488L23.3036 4.52576C23.4475 4.48872 23.5948 4.47471 23.7458 4.48374C23.8964 4.49164 24.0332 4.51989 24.156 4.56849C24.3222 4.63225 24.4661 4.73469 24.5876 4.87581C24.7091 5.01694 24.7981 5.19697 24.8546 5.41591ZM24.4411 5.52057C24.3997 5.36002 24.341 5.22068 24.265 5.10257C24.1887 4.98332 24.097 4.88599 23.9901 4.81056C23.8888 4.73846 23.7746 4.69064 23.6475 4.6671C23.5215 4.64327 23.3894 4.64915 23.2511 4.68474C23.2051 4.69661 23.1531 4.71118 23.0952 4.72848C23.0382 4.74436 22.9958 4.75648 22.968 4.76484L23.442 6.6022C23.4684 6.70437 23.5164 6.76743 23.5861 6.79139C23.6558 6.81535 23.7525 6.81141 23.8761 6.77958C24.0188 6.74283 24.137 6.68545 24.2308 6.60743C24.3245 6.52942 24.3929 6.43697 24.4361 6.33007C24.4814 6.21782 24.5039 6.0959 24.5035 5.96429C24.5039 5.83127 24.4831 5.68337 24.4411 5.52057Z" fill="#2B2B2B"/>
<path class="cls-1" d="M27.8409 5.48923L27.889 6.21299L25.8646 6.47921L25.8486 6.35732C25.8826 6.35051 25.9278 6.3399 25.9842 6.3255C26.0405 6.30996 26.0766 6.29705 26.0928 6.28677C26.1272 6.26478 26.1494 6.23915 26.1596 6.20987C26.1708 6.18044 26.1737 6.14455 26.1681 6.1022L25.9374 4.35099C25.9324 4.31322 25.9217 4.28086 25.9053 4.2539C25.8888 4.2258 25.8593 4.20523 25.8168 4.19219C25.7839 4.18138 25.7403 4.17371 25.6861 4.1692C25.6331 4.16453 25.5909 4.16309 25.5597 4.16487L25.5436 4.04297L27.4306 3.79482L27.5079 4.38199L27.379 4.39894C27.3447 4.31497 27.2827 4.22938 27.1931 4.14219C27.1045 4.0537 27.0253 4.00939 26.9553 4.00928C26.9192 4.00937 26.8763 4.01151 26.8268 4.0157C26.7772 4.01989 26.7209 4.02613 26.6579 4.03442L26.2747 4.08481L26.4023 5.05313L26.6772 5.01697C26.7654 5.00537 26.8285 4.98892 26.8665 4.96762C26.9055 4.94503 26.9379 4.91224 26.9637 4.86926C26.9845 4.83275 26.9999 4.7859 27.0099 4.7287C27.0208 4.6702 27.0259 4.61597 27.0252 4.566L27.1541 4.54905L27.2796 5.50191L27.1507 5.51886C27.1389 5.46452 27.1187 5.40838 27.0901 5.35043C27.0624 5.29118 27.0359 5.24926 27.0105 5.22465C26.9691 5.18468 26.9246 5.16084 26.877 5.15313C26.8305 5.14528 26.77 5.14624 26.6955 5.15604L26.4206 5.1922L26.517 5.92358C26.5266 5.99684 26.5394 6.05396 26.5553 6.09495C26.5712 6.13595 26.5954 6.16536 26.6281 6.18319C26.6607 6.20102 26.7033 6.20998 26.7558 6.21007C26.8081 6.20901 26.8818 6.20223 26.9769 6.18972C27.0147 6.18475 27.0645 6.1782 27.1264 6.17006C27.1882 6.16192 27.2401 6.15278 27.2819 6.14263C27.3248 6.13232 27.3684 6.11843 27.4127 6.10096C27.458 6.08219 27.4891 6.06123 27.5058 6.03806C27.5513 5.97619 27.5954 5.88598 27.638 5.76742C27.6817 5.64757 27.7081 5.56026 27.7172 5.5055L27.8409 5.48923Z" fill="#2B2B2B"/>
<path class="cls-1" d="M30.146 4.99544C30.1993 5.05227 30.2388 5.11516 30.2645 5.18412C30.2914 5.2519 30.3057 5.3315 30.3075 5.42294C30.3119 5.64053 30.235 5.82154 30.0768 5.96596C29.9185 6.11038 29.7201 6.18498 29.4815 6.18975C29.3714 6.19195 29.261 6.17737 29.1503 6.146C29.0395 6.11348 28.9437 6.07371 28.8628 6.0267L28.7906 6.15493L28.6516 6.1577L28.6103 5.31444L28.7511 5.31163C28.7821 5.41522 28.8176 5.50887 28.8576 5.5926C28.8986 5.67515 28.9517 5.75224 29.0169 5.82388C29.0785 5.89097 29.1497 5.94396 29.2304 5.98288C29.3124 6.02176 29.4066 6.04014 29.5132 6.03801C29.5931 6.03642 29.6624 6.02461 29.7211 6.0026C29.7809 5.98056 29.829 5.95007 29.8653 5.91114C29.9016 5.8722 29.9279 5.8271 29.9443 5.77582C29.9618 5.72337 29.9699 5.66358 29.9685 5.59645C29.9666 5.49807 29.9369 5.40719 29.8796 5.32381C29.8223 5.23927 29.7382 5.17611 29.6272 5.13433C29.5513 5.10574 29.4643 5.07448 29.3663 5.04055C29.2682 5.00546 29.1836 4.97241 29.1122 4.94142C28.972 4.8817 28.862 4.80226 28.7824 4.70312C28.7039 4.6028 28.663 4.47104 28.6597 4.30784C28.6578 4.21409 28.6752 4.12633 28.7118 4.04454C28.7484 3.96276 28.8014 3.88934 28.8708 3.82427C28.9368 3.76274 29.0152 3.71428 29.1061 3.67888C29.1969 3.64233 29.2921 3.62306 29.3918 3.62107C29.5053 3.6188 29.607 3.63414 29.6969 3.66707C29.788 3.69999 29.8711 3.73886 29.9461 3.78367L30.015 3.66419L30.154 3.66141L30.1843 4.47884L30.0436 4.48166C30.0162 4.38842 29.9854 4.2993 29.9513 4.2143C29.9183 4.12927 29.8756 4.05255 29.8232 3.98412C29.7721 3.91799 29.7102 3.86596 29.6376 3.82805C29.5649 3.78897 29.4765 3.77048 29.3722 3.77256C29.2621 3.77476 29.169 3.81194 29.0928 3.88409C29.0166 3.95624 28.9795 4.04325 28.9816 4.1451C28.9837 4.25158 29.0104 4.33962 29.0616 4.40923C29.1128 4.47768 29.1864 4.53352 29.2823 4.57676C29.3676 4.61558 29.4512 4.64923 29.5329 4.6777C29.6157 4.70499 29.6957 4.73466 29.7728 4.76669C29.843 4.7954 29.9103 4.82821 29.9747 4.86513C30.0404 4.90203 30.0975 4.94546 30.146 4.99544Z" fill="#2B2B2B"/>
<path class="cls-1" d="M32.2522 6.23607L31.1441 6.16421L31.1521 6.04121C31.1835 6.04092 31.2288 6.04038 31.2881 6.03959C31.3473 6.03879 31.3894 6.03456 31.4143 6.02689C31.4534 6.01435 31.4825 5.99594 31.5014 5.97166C31.5205 5.94622 31.5315 5.9104 31.5345 5.8642L31.6503 4.08322C31.6529 4.0428 31.6487 4.00889 31.6377 3.9815C31.6268 3.95296 31.5982 3.92791 31.552 3.90636C31.5183 3.89025 31.4752 3.87469 31.4227 3.8597C31.3715 3.84362 31.3292 3.83334 31.2959 3.82885L31.3039 3.70585L32.412 3.77771L32.404 3.90071C32.3681 3.89954 32.325 3.90139 32.2748 3.90625C32.2246 3.90996 32.1806 3.91638 32.1429 3.92553C32.0981 3.93655 32.0671 3.95716 32.0501 3.98737C32.033 4.01758 32.0232 4.05174 32.0208 4.08985L31.9052 5.86909C31.9027 5.90721 31.9086 5.9418 31.9228 5.97288C31.9383 6.00288 31.9657 6.02786 32.005 6.0478C32.0287 6.05862 32.0673 6.07156 32.1209 6.08664C32.1757 6.10063 32.2222 6.10944 32.2602 6.11307L32.2522 6.23607Z" fill="#2B2B2B"/>
<path class="cls-1" d="M35.4462 5.66213C35.418 5.66086 35.3798 5.66023 35.3313 5.66022C35.2842 5.65925 35.2452 5.6632 35.2141 5.67206C35.1768 5.68338 35.1479 5.70382 35.1275 5.73337C35.1084 5.76198 35.0952 5.79749 35.088 5.83991L35.0556 6.0291C35.032 6.16668 35.0167 6.25965 35.0096 6.30801C35.0037 6.35655 34.9992 6.3965 34.9962 6.42785C34.8318 6.47058 34.6707 6.49735 34.5129 6.50816C34.3552 6.51898 34.2034 6.51194 34.0577 6.48705C33.9016 6.46039 33.7562 6.40548 33.6216 6.32231C33.487 6.23914 33.375 6.13445 33.2856 6.00825C33.1952 5.88071 33.1312 5.73348 33.0936 5.56657C33.056 5.39966 33.0537 5.2199 33.0867 5.02727C33.1185 4.84153 33.1783 4.67474 33.2662 4.5269C33.3554 4.37812 33.4663 4.25485 33.5988 4.15711C33.7274 4.06108 33.8723 3.99437 34.0335 3.95698C34.1959 3.91865 34.3633 3.91418 34.5354 3.94358C34.6731 3.9671 34.7902 4.00421 34.8867 4.0549C34.9831 4.1056 35.0663 4.16112 35.1363 4.22145L35.2269 4.11656L35.3647 4.14008L35.2342 4.99577L35.093 4.97166C35.085 4.87352 35.071 4.77613 35.0509 4.67947C35.031 4.58167 34.9991 4.49185 34.9552 4.41002C34.9114 4.32818 34.8523 4.25909 34.7781 4.20275C34.7052 4.14546 34.6125 4.10721 34.5001 4.088C34.3773 4.06703 34.2633 4.07354 34.1583 4.10752C34.0535 4.14036 33.957 4.2 33.869 4.28646C33.7827 4.36966 33.7085 4.47912 33.6463 4.61483C33.5841 4.75053 33.538 4.9061 33.5079 5.08152C33.4814 5.23631 33.4748 5.38563 33.488 5.52949C33.5025 5.6724 33.5368 5.7998 33.5909 5.91171C33.6446 6.0259 33.7198 6.12135 33.8165 6.19806C33.9133 6.27476 34.0293 6.32467 34.1648 6.3478C34.2658 6.36505 34.3602 6.36525 34.4481 6.34841C34.5372 6.33176 34.6019 6.30918 34.6422 6.28066C34.6616 6.22261 34.6765 6.1632 34.6869 6.10243C34.6985 6.04186 34.7079 5.99036 34.7151 5.94794L34.7381 5.81379C34.7463 5.76563 34.7467 5.72204 34.7392 5.68299C34.733 5.643 34.7108 5.61088 34.6724 5.58662C34.6375 5.56296 34.588 5.54152 34.5239 5.52233C34.4612 5.50218 34.4117 5.48782 34.3754 5.47925L34.3969 5.35371L35.4677 5.53658L35.4462 5.66213Z" fill="#2B2B2B"/>
<path class="cls-1" d="M39.0339 5.30652C39.0026 5.29815 38.9522 5.29246 38.8829 5.28943C38.8135 5.28641 38.7623 5.28952 38.7292 5.29877C38.6808 5.31426 38.6374 5.35909 38.599 5.43328C38.5616 5.5078 38.5245 5.60539 38.4876 5.72603L37.9596 7.45102L37.8151 7.40686L36.9758 5.04276L36.6039 6.25806C36.5622 6.3942 36.5385 6.50134 36.5327 6.57946C36.5281 6.65793 36.5388 6.71807 36.5647 6.75989C36.5828 6.79202 36.6285 6.83079 36.7018 6.87618C36.7751 6.92158 36.8244 6.94872 36.8495 6.95761L36.8134 7.07549L35.8462 6.78006L35.8823 6.66218C35.9129 6.6691 35.9665 6.67399 36.0432 6.67683C36.1202 6.67856 36.1699 6.67439 36.1924 6.66431C36.2407 6.64516 36.2816 6.60624 36.3154 6.54755C36.3494 6.48776 36.39 6.38094 36.4371 6.22709L36.7922 5.06658C36.8078 5.01566 36.8145 4.96204 36.8124 4.90571C36.8102 4.84938 36.7984 4.80282 36.777 4.76601C36.7483 4.7173 36.7035 4.66973 36.6426 4.62329C36.5831 4.57608 36.5327 4.54494 36.4913 4.52987L36.5274 4.41199L37.2004 4.61758L37.9768 6.81904L38.3198 5.69837C38.3618 5.56113 38.3851 5.45327 38.3897 5.37481C38.3947 5.29523 38.3843 5.2382 38.3585 5.20369C38.3339 5.17319 38.2892 5.13714 38.2244 5.09556C38.1607 5.05432 38.1109 5.02701 38.075 5.01363L38.1111 4.89575L39.07 5.18865L39.0339 5.30652Z" fill="#2B2B2B"/>
<path class="cls-1" d="M42.6611 7.57027L42.545 7.5104C42.5654 7.41778 42.565 7.30724 42.5438 7.1788C42.5236 7.05089 42.4845 6.96606 42.4263 6.92432C42.3964 6.9037 42.3599 6.88092 42.3165 6.85598C42.2743 6.83157 42.2253 6.805 42.1695 6.77626L41.8011 6.5863L41.3457 7.46783L41.598 7.59793C41.6744 7.63731 41.7377 7.66017 41.788 7.66652C41.8389 7.67184 41.8878 7.66572 41.9348 7.64816C41.9671 7.63612 42.0038 7.61064 42.0448 7.57173C42.0874 7.53232 42.1254 7.48662 42.1588 7.43463L42.2764 7.49529L41.8314 8.35672L41.7138 8.29606C41.7341 8.2491 41.7499 8.19196 41.7611 8.12464C41.7734 8.05786 41.7759 8.00626 41.7686 7.96984C41.7573 7.91573 41.7314 7.86973 41.6909 7.83185C41.6519 7.79348 41.5994 7.75726 41.5333 7.7232L41.281 7.5931L40.8903 8.34936C40.8727 8.38339 40.8637 8.41726 40.8633 8.45099C40.8629 8.48471 40.8754 8.5186 40.901 8.55266C40.9127 8.56785 40.9417 8.59391 40.988 8.63083C41.0343 8.66774 41.0706 8.69363 41.0969 8.7085L41.0401 8.81831L40.0881 8.32743L40.1448 8.21763C40.1768 8.23153 40.2197 8.24972 40.2734 8.2722C40.3277 8.29365 40.3644 8.30476 40.3837 8.30553C40.4215 8.30809 40.4538 8.29994 40.4806 8.28108C40.5089 8.26172 40.5326 8.23348 40.5518 8.19637L41.3699 6.6127C41.3875 6.57868 41.3972 6.54585 41.3992 6.51422C41.4017 6.48156 41.3892 6.44767 41.3616 6.41255C41.3406 6.38478 41.3091 6.3535 41.2669 6.31872C41.2258 6.28446 41.1918 6.25912 41.1651 6.24269L41.2218 6.13289L42.9447 7.02124L42.6611 7.57027Z" fill="#2B2B2B"/>
<path class="cls-1" d="M45.2721 8.82961C45.2988 8.98448 45.2927 9.14576 45.2535 9.31343C45.215 9.48015 45.1413 9.64411 45.0325 9.80531C44.923 9.96746 44.7976 10.0973 44.6564 10.1947C44.5151 10.2922 44.3669 10.3564 44.2119 10.3873C44.0604 10.4193 43.9087 10.4204 43.7569 10.3906C43.605 10.3609 43.4624 10.3011 43.3289 10.2111C43.1867 10.1153 43.073 10.0003 42.9876 9.86593C42.9038 9.73129 42.8508 9.58735 42.8285 9.43411C42.8049 9.28278 42.8128 9.12408 42.8523 8.95801C42.8934 8.79163 42.9651 8.63264 43.0674 8.48104C43.1795 8.31504 43.3052 8.18475 43.4445 8.09017C43.5845 7.99463 43.7322 7.93011 43.8876 7.8966C44.0414 7.86341 44.1946 7.862 44.3474 7.89236C44.5012 7.92337 44.6433 7.98289 44.774 8.07092C44.9094 8.16218 45.02 8.27369 45.1057 8.40545C45.1914 8.53721 45.2469 8.6786 45.2721 8.82961ZM44.0798 10.1329C44.1925 10.0818 44.2981 10.0092 44.3966 9.915C44.4961 9.82149 44.5919 9.70661 44.6839 9.57036C44.7784 9.43027 44.8513 9.29231 44.9025 9.15648C44.9547 9.02129 44.9822 8.89464 44.9851 8.77653C44.9873 8.65937 44.9638 8.55138 44.9146 8.45256C44.8659 8.35278 44.7902 8.26827 44.6875 8.19901C44.5722 8.12134 44.4564 8.08171 44.3401 8.08011C44.2238 8.07852 44.1104 8.10471 43.9999 8.15868C43.8949 8.21075 43.7921 8.28531 43.6917 8.38235C43.5922 8.48004 43.5003 8.59125 43.4161 8.71599C43.3228 8.85416 43.251 8.98731 43.2009 9.11544C43.1507 9.24357 43.1233 9.36894 43.1188 9.49154C43.1137 9.61093 43.1343 9.72115 43.1806 9.8222C43.2276 9.92229 43.3059 10.0092 43.4154 10.083C43.5181 10.1523 43.627 10.1907 43.742 10.1984C43.857 10.2061 43.9696 10.1843 44.0798 10.1329Z" fill="#2B2B2B"/>
<path class="cls-1" d="M48.3328 11.1769C48.3077 11.1564 48.2674 11.1302 48.2121 11.0985C48.1568 11.0668 48.1059 11.0476 48.0596 11.0407C48.0124 11.0347 47.9557 11.058 47.8894 11.1105C47.823 11.1631 47.7501 11.2345 47.6706 11.3248L46.9629 12.1282C46.8727 12.2306 46.773 12.3009 46.6639 12.339C46.5548 12.3771 46.4441 12.3899 46.3318 12.3774C46.2218 12.3639 46.1198 12.3335 46.0258 12.2863C45.9318 12.2407 45.8501 12.1873 45.7806 12.1262C45.6694 12.0284 45.5833 11.9266 45.5224 11.8207C45.4608 11.7156 45.4222 11.6124 45.4067 11.511C45.3921 11.4103 45.3979 11.3153 45.4242 11.226C45.4512 11.1358 45.4953 11.0559 45.5565 10.9865L46.5187 9.89403C46.5455 9.86365 46.5625 9.83389 46.5696 9.80476C46.5784 9.77552 46.5753 9.73886 46.5601 9.69476C46.5491 9.66351 46.5297 9.62952 46.5019 9.59278C46.4749 9.55518 46.4513 9.52596 46.4312 9.50513L46.5126 9.41268L47.2829 10.0899L47.2014 10.1823C47.1763 10.1618 47.1421 10.1386 47.0986 10.1127C47.056 10.0875 47.0233 10.0704 47.0006 10.0612C46.9618 10.0456 46.9266 10.0454 46.8947 10.0605C46.8638 10.0764 46.8357 10.0987 46.8104 10.1274L45.9112 11.1482C45.8677 11.1977 45.827 11.2544 45.7893 11.3182C45.7531 11.382 45.7305 11.4514 45.7214 11.5265C45.7132 11.6041 45.7249 11.6836 45.7563 11.7652C45.7878 11.8467 45.8543 11.9322 45.956 12.0216C46.0516 12.1056 46.1449 12.1607 46.2359 12.1868C46.3279 12.2138 46.4143 12.2189 46.4953 12.2023C46.5722 12.1867 46.6406 12.1598 46.7005 12.1216C46.7603 12.0834 46.8132 12.0382 46.8591 11.9861L47.5266 11.2283C47.6115 11.1319 47.6737 11.0473 47.7133 10.9743C47.7537 10.9004 47.7689 10.8421 47.7588 10.7993C47.7475 10.7509 47.7207 10.6973 47.6784 10.6385C47.6369 10.5806 47.6031 10.5385 47.5768 10.5123L47.6582 10.4198L48.4142 11.0844L48.3328 11.1769Z" fill="#2B2B2B"/>
<path class="cls-1" d="M50.6978 13.7329C50.6755 13.7093 50.6358 13.6779 50.5784 13.6389C50.5211 13.5998 50.4759 13.5755 50.4429 13.5659C50.3936 13.5536 50.3331 13.5689 50.2613 13.6117C50.1902 13.6554 50.1072 13.7187 50.0122 13.8018L48.6537 14.99L48.5541 14.8764L49.0877 12.4253L48.1306 13.2624C48.0234 13.3562 47.9467 13.4348 47.9006 13.4981C47.8553 13.5624 47.8326 13.6191 47.8327 13.6683C47.831 13.7051 47.8494 13.7621 47.8878 13.8393C47.9262 13.9165 47.9537 13.9655 47.9704 13.9863L47.8776 14.0675L47.2113 13.3072L47.3042 13.226C47.3265 13.248 47.3695 13.2804 47.4332 13.3232C47.4977 13.3652 47.5422 13.3878 47.5666 13.3911C47.6177 13.4002 47.6731 13.3887 47.7327 13.3566C47.7932 13.3237 47.884 13.2542 48.0052 13.1483L48.9191 12.3489C48.9592 12.3138 48.9932 12.2718 49.0211 12.2228C49.049 12.1738 49.0635 12.128 49.0647 12.0854C49.066 12.0289 49.053 11.9649 49.0257 11.8934C49.0001 11.822 48.9737 11.7689 48.9464 11.7343L49.0392 11.6531L49.5028 12.1822L49.0016 14.4619L49.8841 13.69C49.9922 13.5955 50.0689 13.5161 50.1143 13.4518C50.1605 13.3868 50.1817 13.3329 50.178 13.29C50.1732 13.2511 50.1542 13.1969 50.121 13.1275C50.0886 13.0589 50.0607 13.0095 50.0373 12.9792L50.1301 12.898L50.7906 13.6517L50.6978 13.7329Z" fill="#2B2B2B"/>
<path class="cls-1" d="M51.6306 17.0608C51.4568 17.1779 51.2839 17.2469 51.1121 17.2678C50.9404 17.2886 50.7783 17.2742 50.6261 17.2247C50.4732 17.1741 50.3322 17.0967 50.2031 16.9925C50.074 16.8882 49.9621 16.766 49.8675 16.6259L49.2961 15.7797L49.3984 15.7107C49.4172 15.7385 49.4439 15.7729 49.4785 15.8138C49.5147 15.855 49.541 15.8806 49.5575 15.8904C49.5894 15.9108 49.6216 15.9191 49.654 15.9154C49.6881 15.912 49.7224 15.8987 49.7569 15.8754L51.2322 14.8812C51.2648 14.8592 51.2902 14.8337 51.3084 14.8047C51.3272 14.7767 51.3333 14.7412 51.3266 14.6982C51.3209 14.6587 51.3098 14.6195 51.2932 14.5804C51.2766 14.5413 51.2608 14.5087 51.2459 14.4824L51.3482 14.4135L51.9507 15.3058C52.0336 15.4287 52.0961 15.5625 52.138 15.7074C52.1809 15.8516 52.1999 15.9895 52.1952 16.1212C52.1907 16.2987 52.1423 16.4682 52.05 16.6295C51.9577 16.7908 51.8179 16.9346 51.6306 17.0608ZM51.3939 16.7072C51.5313 16.6146 51.6429 16.5129 51.7287 16.402C51.8155 16.2905 51.8765 16.1719 51.9118 16.0462C51.9459 15.9269 51.9528 15.8036 51.9325 15.6762C51.9128 15.5499 51.8632 15.4277 51.7835 15.3096C51.7569 15.2703 51.7258 15.2263 51.6902 15.1777C51.6562 15.1294 51.6306 15.0936 51.6135 15.0703L50.0417 16.1295C49.9543 16.1884 49.911 16.2546 49.9117 16.3281C49.9124 16.4016 49.9484 16.4912 50.0197 16.5967C50.102 16.7186 50.1955 16.8105 50.3003 16.8725C50.405 16.9346 50.5149 16.968 50.63 16.9728C50.7508 16.9779 50.8732 16.9583 50.997 16.914C51.1224 16.87 51.2547 16.8011 51.3939 16.7072Z" fill="#2B2B2B"/>
<path class="cls-1" d="M52.0007 20.4267L51.5393 19.51L51.6495 19.4546C51.6953 19.5327 51.7392 19.5942 51.7813 19.6391C51.8238 19.6851 51.8565 19.7023 51.8793 19.6909C51.8886 19.6862 51.8995 19.6795 51.9119 19.6706C51.9243 19.6618 51.9346 19.6527 51.9429 19.6434L52.3445 19.2123L51.9564 18.4415C51.8694 18.4489 51.7943 18.4569 51.7311 18.4653C51.6684 18.4747 51.6107 18.4837 51.5579 18.4921C51.5066 18.501 51.4657 18.5099 51.4351 18.5188C51.4046 18.5276 51.3805 18.5365 51.3629 18.5453C51.3215 18.5661 51.3058 18.6148 51.3158 18.6914C51.3259 18.768 51.3494 18.8482 51.3864 18.9319L51.2761 18.9873L50.8592 18.1591L50.9694 18.1037C50.985 18.1295 51.0076 18.1603 51.0372 18.1959C51.0679 18.2311 51.098 18.2574 51.1276 18.2749C51.1763 18.3022 51.2215 18.3197 51.2629 18.3274C51.3054 18.3345 51.3591 18.3355 51.4238 18.3301C51.7558 18.3019 52.1278 18.2679 52.5396 18.2281C52.9514 18.1884 53.3181 18.1531 53.6398 18.1223L53.7023 18.2464L52.1713 19.9348C52.1387 19.9706 52.115 20.0045 52.1 20.0367C52.0851 20.0688 52.0746 20.1084 52.0685 20.1555C52.0659 20.1866 52.0691 20.2239 52.078 20.2673C52.088 20.3102 52.099 20.3449 52.1109 20.3713L52.0007 20.4267ZM52.4545 19.0871L53.1405 18.3246L52.1219 18.4263L52.4545 19.0871Z" fill="#2B2B2B"/>
<path class="cls-1" d="M54.5299 22.1964L54.4891 22.0838C54.5248 22.0598 54.5645 22.0251 54.6084 21.9798C54.6538 21.9351 54.6948 21.8883 54.7313 21.8394C54.7696 21.7887 54.8001 21.737 54.823 21.6845C54.8473 21.6326 54.8557 21.5878 54.8481 21.5499C54.8403 21.5146 54.8282 21.471 54.8119 21.4191C54.7955 21.3671 54.7795 21.3194 54.7637 21.2759L54.7295 21.1813L52.8754 21.8511C52.8394 21.8641 52.809 21.8837 52.784 21.91C52.7601 21.9359 52.7469 21.9708 52.7444 22.0148C52.7438 22.0371 52.7482 22.0816 52.7576 22.1484C52.7674 22.2162 52.778 22.2677 52.7896 22.3029L52.6736 22.3448L52.2777 21.2514L52.3937 21.2095C52.4069 21.2392 52.428 21.2838 52.457 21.3435C52.4864 21.4042 52.5103 21.4448 52.5288 21.4652C52.5559 21.496 52.5855 21.5148 52.6176 21.5217C52.6511 21.5293 52.6902 21.525 52.7348 21.5088L54.6036 20.8336L54.5694 20.739C54.5571 20.7053 54.5409 20.6638 54.5206 20.6145C54.5014 20.5649 54.4808 20.5182 54.4588 20.4744C54.4415 20.4401 54.4061 20.4104 54.3527 20.3854C54.3008 20.3611 54.2444 20.3415 54.1836 20.3266C54.1228 20.3116 54.0601 20.3017 53.9955 20.2967C53.932 20.2914 53.8805 20.2903 53.841 20.2935L53.7996 20.1793L54.4286 19.952L55.1588 21.9691L54.5299 22.1964Z" fill="#2B2B2B"/>
<path class="cls-1" d="M53.2541 24.4931L52.9723 23.42L53.0916 23.3887C53.1018 23.4183 53.1167 23.4611 53.1361 23.517C53.1556 23.5729 53.1729 23.6115 53.1881 23.6326C53.2123 23.6658 53.239 23.6875 53.2681 23.6978C53.2983 23.7079 53.3358 23.707 53.3806 23.6953L55.1086 23.2423C55.1479 23.232 55.1787 23.2173 55.2013 23.1983C55.2249 23.1789 55.2397 23.1439 55.2456 23.0933C55.2502 23.0562 55.2514 23.0104 55.249 22.956C55.2481 22.9024 55.2445 22.859 55.2383 22.826L55.3576 22.7947L55.6394 23.8678L55.5201 23.8991C55.5099 23.8647 55.4945 23.8244 55.474 23.7783C55.4546 23.732 55.4346 23.6923 55.414 23.6594C55.3894 23.6204 55.3601 23.5976 55.326 23.591C55.2919 23.5844 55.2564 23.5859 55.2194 23.5956L53.493 24.0481C53.456 24.0578 53.425 24.0743 53.4 24.0976C53.3764 24.1218 53.3614 24.1556 53.3548 24.1992C53.352 24.2251 53.352 24.2658 53.3546 24.3213C53.3586 24.3777 53.3649 24.4245 53.3735 24.4618L53.2541 24.4931Z" fill="#2B2B2B"/>
<path class="cls-1" d="M55.9491 26.8733C55.8533 26.9981 55.7305 27.1029 55.5806 27.1879C55.4319 27.2727 55.2613 27.3298 55.0689 27.3592C54.8754 27.3888 54.6949 27.3848 54.5274 27.3472C54.3599 27.3096 54.2121 27.2443 54.0842 27.1515C53.958 27.0619 53.8543 26.9513 53.7732 26.8197C53.6921 26.6881 53.6394 26.5427 53.615 26.3837C53.5891 26.2144 53.5965 26.0528 53.6374 25.899C53.6797 25.7462 53.7496 25.6097 53.8472 25.4894C53.9425 25.3694 54.0646 25.2676 54.2135 25.1839C54.3638 25.1013 54.5293 25.0461 54.7103 25.0184C54.9084 24.9881 55.0895 24.992 55.2536 25.0302C55.4188 25.0681 55.5664 25.1328 55.6964 25.2242C55.8251 25.3145 55.9301 25.4261 56.0114 25.5589C56.0929 25.6928 56.1455 25.8375 56.1694 25.9931C56.1941 26.1544 56.187 26.3112 56.1482 26.4635C56.1095 26.6158 56.0431 26.7524 55.9491 26.8733ZM54.1818 26.8819C54.2958 26.93 54.4209 26.9583 54.557 26.9668C54.6932 26.9764 54.8427 26.9688 55.0053 26.9439C55.1725 26.9183 55.3234 26.8783 55.458 26.8237C55.5928 26.7703 55.7047 26.7046 55.7935 26.6267C55.8812 26.5489 55.9447 26.4584 55.984 26.3552C56.0244 26.2518 56.0352 26.1389 56.0165 26.0165C55.9954 25.8792 55.9461 25.7673 55.8684 25.6809C55.7906 25.5944 55.6945 25.5289 55.5798 25.4844C55.4703 25.4426 55.3457 25.4177 55.2062 25.4098C55.0669 25.403 54.9228 25.4109 54.7739 25.4337C54.609 25.4589 54.4624 25.4966 54.3341 25.5466C54.2058 25.5967 54.0951 25.6616 54.0018 25.7415C53.9105 25.8186 53.8434 25.9085 53.8005 26.0111C53.7588 26.1135 53.7479 26.2299 53.7679 26.3603C53.7866 26.4827 53.8322 26.5888 53.9045 26.6784C53.9769 26.768 54.0693 26.8359 54.1818 26.8819Z" fill="#2B2B2B"/>
<path class="cls-1" d="M56.3216 30.7329C56.3197 30.7006 56.3093 30.651 56.2904 30.5843C56.2715 30.5176 56.2524 30.47 56.2332 30.4415C56.2033 30.4005 56.1471 30.3734 56.0645 30.3602C55.982 30.3482 55.8776 30.3436 55.7514 30.3465L53.9464 30.3874L53.943 30.2364L55.926 28.6982L54.6543 28.727C54.5119 28.7302 54.4026 28.7414 54.3266 28.7605C54.2506 28.7807 54.1968 28.8097 54.1652 28.8475C54.1403 28.8747 54.1178 28.9302 54.0977 29.014C54.0776 29.0978 54.0673 29.153 54.0667 29.1796L53.9434 29.1824L53.9204 28.1724L54.0438 28.1696C54.0468 28.2008 54.059 28.2532 54.0804 28.3268C54.1029 28.4003 54.1225 28.4462 54.1391 28.4643C54.1725 28.5041 54.2223 28.5308 54.2887 28.5443C54.3562 28.5578 54.4704 28.5627 54.6314 28.5591L55.8457 28.5315C55.899 28.5303 55.952 28.5199 56.0049 28.5001C56.0577 28.4804 56.0983 28.4546 56.1265 28.4227C56.1638 28.3802 56.1949 28.3228 56.2199 28.2504C56.2461 28.1792 56.2599 28.1216 56.2612 28.0776L56.3845 28.0748L56.4005 28.7777L54.5524 30.2053L55.725 30.1787C55.8686 30.1754 55.9784 30.1636 56.0544 30.1434C56.1316 30.1231 56.1825 30.0953 56.2072 30.0601C56.2285 30.0272 56.2487 29.9735 56.2678 29.8989C56.287 29.8256 56.2974 29.7698 56.2988 29.7315L56.4221 29.7287L56.4449 30.7301L56.3216 30.7329Z" fill="#2B2B2B"/>
</g>
<defs>
    <style>
      @media (prefers-color-scheme: dark) {
        .cls-1 {
          fill: #fff;
        }
      }
    </style>
<clipPath id="clip0_6_73">
<rect width="184" height="60" fill="white"/>
</clipPath>
</defs>
</svg>
