<svg xmlns="http://www.w3.org/2000/svg" width="128" height="22.156" viewBox="0 0 128 22.156">
<defs>
    <style>
      .cls-1 {
        fill: #f1373e;
      }
    </style>
  </defs>
  <path fill-rule="evenodd" class="cls-1" d="M542.851,782.818h3.039a9.534,9.534,0,0,1,.125,1.555,8.888,8.888,0,0,1-.281,2.2,9.055,9.055,0,0,1-.824,2.063,8.588,8.588,0,0,1-1.306,1.8A7.833,7.833,0,0,1,537.638,793a8.286,8.286,0,0,1-3.269-.635,7.578,7.578,0,0,1-2.631-1.88,10.4,10.4,0,0,1-1.9-3.094h3.283a4.994,4.994,0,0,0,4.52,2.682,5.33,5.33,0,0,0,2.446-.579,5.154,5.154,0,0,0,1.858-1.6,5.85,5.85,0,0,0,1-2.428H529.322v-0.459a12.649,12.649,0,0,1,.342-3.043,8.072,8.072,0,0,1,1.044-2.444,8.58,8.58,0,0,1,1.868-2.073,7.985,7.985,0,0,1,2.371-1.291,8.486,8.486,0,0,1,2.752-.447,7.8,7.8,0,0,1,6.026,2.683,8.629,8.629,0,0,1,1.618,2.5h-3.368c-0.078-.114-0.159-0.224-0.244-0.33a5.133,5.133,0,0,0-4.123-1.987,5.089,5.089,0,0,0-2.29.5,4.758,4.758,0,0,0-1.737,1.443,6.449,6.449,0,0,0-1.065,2.292h10.335Zm-18.563,1.014a6.331,6.331,0,0,0-.954-3.878,3.465,3.465,0,0,0-2.963-1.245,3.473,3.473,0,0,0-3.741,2.81,13.169,13.169,0,0,0-.386,3.562v7.44h-2.923V776.148h2.8v1.859a5.775,5.775,0,0,1,2.013-1.625,5.7,5.7,0,0,1,2.506-.508,7.08,7.08,0,0,1,3.566.848,5.427,5.427,0,0,1,2.23,2.47,9.416,9.416,0,0,1,.773,4v9.33h-2.923v-8.689Zm-14.5,4.588a8.545,8.545,0,0,1-1.23,1.783,8.723,8.723,0,0,1-2.792,2.063,8.1,8.1,0,0,1-9.23-1.849,8.614,8.614,0,0,1-1.306-1.8,8.754,8.754,0,0,1-.818-2.063,8.623,8.623,0,0,1-.287-2.206,9.207,9.207,0,0,1,.567-3.262,8.1,8.1,0,0,1,1.723-2.714,8.839,8.839,0,0,1,1.738-1.468,8.1,8.1,0,0,1,2.018-.945,7.318,7.318,0,0,1,2.179-.331,8.287,8.287,0,0,1,3.26.636,8.553,8.553,0,0,1,2.737,1.9,8.793,8.793,0,0,1,1.858,2.769,8.407,8.407,0,0,1,.612,3.206,9.408,9.408,0,0,1-.266,2.231A8.878,8.878,0,0,1,509.79,788.42Zm-2.39-6.429a5.576,5.576,0,0,0-1.13-1.813,5.121,5.121,0,0,0-1.692-1.2,5.346,5.346,0,0,0-2.1-.427,5.089,5.089,0,0,0-2.079.438,5.194,5.194,0,0,0-1.7,1.209,5.782,5.782,0,0,0-1.14,1.824,6.414,6.414,0,0,0-.417,2.292,6.3,6.3,0,0,0,.413,2.272,5.651,5.651,0,0,0,1.139,1.819,5.168,5.168,0,0,0,7.582,0,5.537,5.537,0,0,0,1.126-1.824A6.7,6.7,0,0,0,507.4,781.991Zm-18.7-5.843H491.6v16.373H488.7V776.148Zm0-5.305H491.6v3.384H488.7v-3.384Zm-4.4,21.678h-2.893v-13.69h-2.29v-2.683h2.29v-5.305h2.893v5.305h2.29v2.683h-2.29v13.69Zm-6.327-4.1a8.507,8.507,0,0,1-1.23,1.783,8.723,8.723,0,0,1-2.792,2.063,8.1,8.1,0,0,1-9.23-1.849,8.61,8.61,0,0,1-1.305-1.8,8.757,8.757,0,0,1-.819-2.063,8.622,8.622,0,0,1-.286-2.206,9.185,9.185,0,0,1,.567-3.262,8.1,8.1,0,0,1,1.723-2.714,8.834,8.834,0,0,1,1.737-1.468,8.1,8.1,0,0,1,2.019-.945,7.318,7.318,0,0,1,2.179-.331,8.291,8.291,0,0,1,3.26.636,8.563,8.563,0,0,1,2.737,1.9,8.81,8.81,0,0,1,1.858,2.769,8.407,8.407,0,0,1,.612,3.206,9.408,9.408,0,0,1-.266,2.231A8.835,8.835,0,0,1,477.978,788.42Zm-2.39-6.429a5.559,5.559,0,0,0-1.13-1.813,5.11,5.11,0,0,0-1.692-1.2,5.339,5.339,0,0,0-2.1-.427,5.1,5.1,0,0,0-2.079.438,5.19,5.19,0,0,0-1.7,1.209,5.782,5.782,0,0,0-1.14,1.824,6.414,6.414,0,0,0-.417,2.292,6.3,6.3,0,0,0,.412,2.272,5.653,5.653,0,0,0,1.14,1.819,5.169,5.169,0,0,0,7.582,0,5.552,5.552,0,0,0,1.125-1.824A6.7,6.7,0,0,0,475.588,781.991Zm-18.726.987a6.222,6.222,0,0,0-.412-2.379,3.332,3.332,0,0,0-1.18-1.514,3.185,3.185,0,0,0-1.843-.529,3.391,3.391,0,0,0-2.094.585,3.22,3.22,0,0,0-1.105,1.789,11.156,11.156,0,0,0-.326,3.023v8.568h-2.833v-8.263a12.135,12.135,0,0,0-.342-3.212,3.546,3.546,0,0,0-1.119-1.88,3.175,3.175,0,0,0-2.034-.61,3.076,3.076,0,0,0-2.787,1.372,7.814,7.814,0,0,0-.889,4.208v8.385h-2.772V776.148h2.592v1.921a4.892,4.892,0,0,1,4.157-2.195,5.742,5.742,0,0,1,2.938.685,4.993,4.993,0,0,1,1.944,2.15,5.084,5.084,0,0,1,1.994-2.129,5.975,5.975,0,0,1,3.007-.706,6.39,6.39,0,0,1,2.441.457,5.412,5.412,0,0,1,1.908,1.321,6.032,6.032,0,0,1,1.236,2.094,8.36,8.36,0,0,1,.441,2.774v10h-2.922v-9.543Zm-34.793,4.867a5.171,5.171,0,0,0,1.858,1.6,5.333,5.333,0,0,0,2.446.58,4.989,4.989,0,0,0,4.52-2.683h3.283a10.4,10.4,0,0,1-1.9,3.094,7.585,7.585,0,0,1-2.632,1.881,8.282,8.282,0,0,1-3.269.635,7.833,7.833,0,0,1-5.966-2.562,8.644,8.644,0,0,1-1.306-1.8,9.014,9.014,0,0,1-.823-2.064,8.836,8.836,0,0,1-.282-2.205,9.05,9.05,0,0,1,.568-3.216,8.612,8.612,0,0,1,1.722-2.76,7.8,7.8,0,0,1,6.027-2.683,8.48,8.48,0,0,1,2.751.447,8.007,8.007,0,0,1,2.371,1.291,8.58,8.58,0,0,1,1.868,2.073,8.022,8.022,0,0,1,1.044,2.444,12.7,12.7,0,0,1,.342,3.045v0.457H421.07A5.857,5.857,0,0,0,422.069,787.845Zm9.426-5.081a6.49,6.49,0,0,0-1.064-2.292,4.769,4.769,0,0,0-1.738-1.443,5.1,5.1,0,0,0-2.29-.5,5.133,5.133,0,0,0-4.123,1.987,6.335,6.335,0,0,0-1.12,2.251H431.5Z" transform="translate(-418 -770.844)"/>
</svg>
