<svg xmlns="http://www.w3.org/2000/svg" width="63.875" height="42.719" viewBox="0 0 63.875 42.719">
<defs>
    <style>
      .cls-1 {
        fill: #f60;
      }
    </style>
  </defs>
  <path class="cls-1" fill-rule="evenodd" d="M771.992,398.629a13.693,13.693,0,0,1-11.9-1.987,4.669,4.669,0,0,1-1.46-1.376,4.917,4.917,0,0,1-.1-1.7v-3.428q0.025-1.676.048-3.35c0.03-.026.059-0.051,0.087-0.078v0.067c2.1,2.248,4.039,4.706,7.394,4.706l0.874-.067c0.134-.024.269-0.045,0.4-0.068a13.955,13.955,0,0,0,1.683-.666c2.037-1.269,1.88-3.7,1.88-6.123h-0.067v0.067h-0.068a6.816,6.816,0,0,1-4.775,2.41c-8.948.279-9.19-15.375-4.743-20.263,1.126-1.24,2.477-1.525,4.006-1.977,2.065,0,3.689.227,5.012,1.636,0.166,0.217.334,0.433,0.5,0.649h0.135c0-.523-0.2-1.8.143-2.142,0.26-.263,6.938-0.143,7.923-0.143v14.654C778.972,387.17,779.917,396.188,771.992,398.629ZM770.765,372.1c-0.439-.7-1.552-0.807-2.347-0.855a3.541,3.541,0,0,0-1.653.7c-1.892,1.718-1.766,6.923.538,8.258a3.233,3.233,0,0,0,1.653.319,3.96,3.96,0,0,0,1.807-1.059A35.529,35.529,0,0,0,770.765,372.1ZM750.33,394.533c-0.651.092-5.006,0.17-5.3-.107a3.956,3.956,0,0,1-.571-1.588q-0.609-2.084-1.214-4.166-2.187-7.628-4.376-15.259l-2.451-8.621h7.394a1.964,1.964,0,0,1,.874.067q1.527,5.774,3.058,11.547l0.1,0.083v-0.068c0.527-1.378,2.809-11.253,3.233-11.507a4.815,4.815,0,0,1,2.01-.122h6.185q-4.168,14.486-8.338,28.97A0.825,0.825,0,0,1,750.33,394.533Zm-13.64-11.861v11.9h-8.066v-13.78c0-2.092.263-4.549-.313-6.372a2.636,2.636,0,0,0-2.244-2.132,3.168,3.168,0,0,0-2.777,1.666c-0.348.792-.111,3.8-0.111,4.888v15.73h-8.067V356.457h8.067v12.3h0.2a7.328,7.328,0,0,1,5.915-4.168,4.975,4.975,0,0,1,3.031.317C737.829,367.164,736.69,376.934,736.69,382.672Z" transform="translate(-715.125 -356.469)"/>
</svg>
