<svg width="80" height="32" viewBox="0 0 80 32" fill="none" xmlns="http://www.w3.org/2000/svg">
<path d="M0 29.7719H15.5546V31.9921H0V29.7719Z" fill="#1F70C1"/>
<path d="M0 25.5131H15.5546V27.7411H0V25.5131Z" fill="#1F70C1"/>
<path d="M4.43744 21.2622H11.1094V23.4904H4.43744V21.2622Z" fill="#1F70C1"/>
<path d="M4.43744 17.0114H11.1094V19.2395H4.43744V17.0114Z" fill="#1F70C1"/>
<path d="M4.43744 12.7605H11.1094V14.9887H4.43744V12.7605Z" fill="#1F70C1"/>
<path d="M4.43744 8.50171H11.1094V10.7299H4.43744V8.50171Z" fill="#1F70C1"/>
<path d="M15.5546 4.25085H0V6.47902H15.5546V4.25085Z" fill="#1F70C1"/>
<path d="M15.5546 0H0V2.22816H15.5546V0Z" fill="#1F70C1"/>
<path d="M17.7734 27.7412H41.6957C42.0998 27.0538 42.4009 26.3032 42.5832 25.5131H17.7734V27.7412Z" fill="#1F70C1"/>
<path d="M39.8336 17.0114H22.2188V19.2395H41.6958C41.1886 18.3861 40.5626 17.6356 39.8336 17.0114Z" fill="#1F70C1"/>
<path d="M22.2188 12.7605V14.9887H39.8336C40.5785 14.3644 41.2044 13.6138 41.6958 12.7605H22.2188Z" fill="#1F70C1"/>
<path d="M41.6958 4.25085H17.7734V6.47902H42.5832C42.3772 5.68888 42.0761 4.93832 41.6958 4.25085Z" fill="#1F70C1"/>
<path d="M34.3423 0H17.7734V2.22816H40.0555C38.5658 0.853309 36.5452 0 34.3423 0Z" fill="#1F70C1"/>
<path d="M28.8827 8.50171H22.2188V10.7299H28.8827V8.50171Z" fill="#1F70C1"/>
<path d="M35.5546 10.7299H42.5277C42.7258 10.0188 42.8288 9.26815 42.8288 8.50171H35.5546V10.7299Z" fill="#1F70C1"/>
<path d="M22.2188 21.2622H28.8827V23.4904H22.2188V21.2622Z" fill="#1F70C1"/>
<path d="M35.5546 21.2622V23.4904H42.8288C42.8288 22.7239 42.7258 21.9734 42.5277 21.2622H35.5546Z" fill="#1F70C1"/>
<path d="M17.7734 31.9763L34.3423 32C36.5611 32 38.5658 31.1467 40.0634 29.7719H17.7734V31.9763Z" fill="#1F70C1"/>
<path d="M44.4454 29.7719H55.5546V31.9921H44.4454V29.7719Z" fill="#1F70C1"/>
<path d="M44.4454 25.5131H55.5546V27.7411H44.4454V25.5131Z" fill="#1F70C1"/>
<path d="M48.8828 21.2622H55.5547V23.4904H48.8828V21.2622Z" fill="#1F70C1"/>
<path d="M48.8828 17.0114H55.5547V19.2395H48.8828V17.0114Z" fill="#1F70C1"/>
<path d="M58.6451 4.25085H44.4454V6.47902H59.4136L58.6451 4.25085Z" fill="#1F70C1"/>
<path d="M57.1711 0H44.4454V2.22816H57.9398L57.1711 0Z" fill="#1F70C1"/>
<path d="M68.8827 29.7719H80V31.9921H68.8827V29.7719Z" fill="#1F70C1"/>
<path d="M68.8827 25.5131H80V27.7411H68.8827V25.5131Z" fill="#1F70C1"/>
<path d="M68.8827 21.2622H75.5546V23.4904H68.8827V21.2622Z" fill="#1F70C1"/>
<path d="M68.8827 17.0114H75.5546V19.2395H68.8827V17.0114Z" fill="#1F70C1"/>
<path d="M68.8828 14.9887H75.5547V12.7605H68.8828H62.8448L62.2188 14.562L61.5928 12.7605H55.5547H48.8828V14.9887H55.5547V12.9422L56.26 14.9887H68.1776L68.8828 12.9422V14.9887Z" fill="#1F70C1"/>
<path d="M75.5546 8.50171H64.3186L63.5499 10.7299H75.5546V8.50171Z" fill="#1F70C1"/>
<path d="M67.2742 0L66.5056 2.22816H80V0H67.2742Z" fill="#1F70C1"/>
<path d="M62.2187 31.9763L62.9873 29.7719H61.4501L62.2187 31.9763Z" fill="#1F70C1"/>
<path d="M60.7449 27.7411H63.6926L64.485 25.5131H59.9604L60.7449 27.7411Z" fill="#1F70C1"/>
<path d="M59.2472 23.4904H65.1902L65.9746 21.2622H58.4627L59.2472 23.4904Z" fill="#1F70C1"/>
<path d="M57.7575 19.2395H66.6878L67.4485 17.0114H56.9889L57.7575 19.2395Z" fill="#1F70C1"/>
<path d="M48.8828 10.7299H60.8875L60.1189 8.50171H48.8828V10.7299Z" fill="#1F70C1"/>
<path d="M65.0317 6.47902H80V4.25085H65.7924L65.0317 6.47902Z" fill="#1F70C1"/>
</svg>
