<svg xmlns="http://www.w3.org/2000/svg" width="160" height="20" viewBox="0 0 160 20">
<defs>
    <style>
      .cls-1 {
        fill: #000;
      }

      @media (prefers-color-scheme: dark) { 
        .cls-1 {
          fill: #fff;
        } 
      }
    </style>
  </defs>
  <path fill-rule="evenodd" class="cls-1" d="M732.819,431.144h-6.55v2.513h3.746v4a13.726,13.726,0,0,1-4.233.772c-4.632,0-7.894-3.057-7.894-7.4a7.373,7.373,0,0,1,7.524-7.456,14.551,14.551,0,0,1,7.007,1.914v-2.828A15.884,15.884,0,0,0,725.468,421,10.1,10.1,0,0,0,715,431.115c0,5.713,4.4,9.885,10.382,9.885a17.126,17.126,0,0,0,7.437-1.6v-8.256h0Zm3.544-9.885v19.484h2.8l-0.013-8.469h1.173c1.43,0,2.615.469,5.189,4.469l2.576,4h3.345c-1.344-1.857-1.829-2.515-2.659-3.857-1.487-2.428-2.575-4.228-4.348-5.4a4.875,4.875,0,0,0,3.26-4.771c0-3.37-2.459-5.456-6.4-5.456h-4.921Zm2.54,2.4h1.8c2.717,0,3.805,1.113,3.834,2.942,0.027,1.628-.843,3.183-3.845,3.183h-1.8Zm21.186-2.515h-1.973l-8.38,19.6h2.86l2.46-5.741h8.294l2.6,5.741h2.859Zm-1.03,4.286,3.147,7.056h-6.063Zm11.8-4.172v19.485h2.8v-8.469h2.918c4.519,0,6.578-2.36,6.578-5.416,0-3.086-1.945-5.6-6.206-5.6h-6.094Zm2.8,2.514h3.289c2.546,0,3.318,1.544,3.318,2.972,0,1.942-1.345,3.039-3.433,3.039h-3.174v-6.011h0Zm28.48-2.514h-2.8v8.525H788.412v-8.525h-2.8v19.484h2.8l-0.017-8.469h10.927l0.015,8.469h2.8V421.258Zm3.886-.176h2.8v19.483h-2.8V421.082Zm16.577,1.291A7.806,7.806,0,0,0,818.256,421c-3.576,0-5.92,2.029-5.92,5.2,0,5.341,8.436,5.8,8.436,9.826,0,1.087-1,2.457-3.174,2.457a6.587,6.587,0,0,1-5.148-2.828V439.2a8.6,8.6,0,0,0,5.461,1.8,5.215,5.215,0,0,0,5.464-5.285c0-6.2-8.438-6.143-8.438-9.885,0-1.372,1.289-2.314,3.091-2.314a6.556,6.556,0,0,1,4.576,2.029v-3.172Zm2.4,8.627a9.967,9.967,0,0,0,10.409,10c6.608,0,10.553-4.744,10.553-10,0-5.427-4.061-10-10.5-10-6.321,0-10.467,4.6-10.467,10m2.722,0a7.594,7.594,0,1,1,7.579,7.429A7.294,7.294,0,0,1,827.728,431m23.607-7.228v6.011h7.608v2.491h-7.608v8.469h-2.8V421.258h26.454v2.514h-6.748v16.971h-2.8V423.772h-14.1Z" transform="translate(-715 -421)"/>
</svg>
